<svg version="1.1" id="asda" xmlns:x="ns_extend;" xmlns:i="ns_ai;" xmlns:graph="ns_graphs;"
              xmlns="http://www.w3.org/2000/svg" xmlns:xlink="http://www.w3.org/1999/xlink" x="0px" y="0px"
              viewBox="0 0 153 45" style="enable-background:new 0 0 153 45;" xml:space="preserve">
              <style type="text/css">
                .st0 {
                  fill-rule: evenodd;
                  clip-rule: evenodd;
                  fill: #F3E8D0;
                }
              </style>

              <g>
                <path class="st0" d="M138.7,1.3h-15.8l-9,26c0.4-2.2,0.5-3.9,0.5-4.6c0-10.9-6.2-21.4-20.9-21.4H76.6l0,25.9
		c-1.5-7.4-8.2-9.3-16.5-11.9c-3.1-1-4.8-2.5-4.2-3.9c0.5-1.2,2.5-1.6,4.8-1.3c3.5,0.5,6.4,1.7,9.1,3.2L73.5,4C72.7,3.6,66.6,0,59,0
		C48.5,0,41.8,5.1,41.8,12.7c0,6.8,4.2,10.7,11.8,12.9c8.2,2.4,10.3,3.4,10.1,5.7c-0.2,2-5.3,4.5-17.8-3.2l-3.7,7.7L30.7,1.3H14.9
		L0,44.3h12.4l2.4-6.9h14.6l2.5,6.9h13l-1.5-4.2c4.4,2.5,9.9,4.9,16.4,4.9c10,0,15.4-5.5,16.7-10.7v10h16.8c10,0,15.3-4.8,18-9.9
		l-3.4,9.9h12.4l2.5-6.9h14.8l2.2,6.9H153L138.7,1.3L138.7,1.3z M17.6,27.7l4.6-14.8l4.4,14.8H17.6z M89.1,33.2V12.4h3
		c4.2,0,8.8,1.7,8.8,10.4c0,7.7-4.1,10.4-8.8,10.4C92.1,33.2,89.1,33.2,89.1,33.2z M125.9,27.7l4.4-14.6l4.6,14.6H125.9z">
                </path>
              </g>
            </svg>