<?xml version="1.0" encoding="UTF-8"?> <svg xmlns="http://www.w3.org/2000/svg" version="1.2"
              viewBox="0 0 250 123" width="250" height="123">
              <title>HMPPS_Lesser_Arms_Stacked_White-svg</title>
              <style>
                .s0 {
                  fill: #F3E8D0;
                }
              </style>
              <g>
                <g id="Line">
                  <path class="s0" d="m9 9.4v105.2h-2.5v-105.2z"></path>
                </g>
                <g id="Simplified_Coat_of_Arms">
                  <g>
                    <g>
                      <path fill-rule="evenodd" class="s0"
                        d="m61.8 32.4c0.5 0 0.2 1.1 0.2 1.4q-0.1-0.2-0.3-0.3c0-0.1 0.1-0.8 0-0.8-0.1 0.1-0.2 0.1-0.3 0-0.1 0-0.1 0.3-0.1 0.4q-0.1-0.2-0.3-0.3c0-0.2 0-0.4 0.2-0.5l-0.1-0.3c-0.2 0.2-1-0.6-1.2-0.6-0.1-0.1-0.2-0.3-0.1-0.4h-0.3c0.4 0.6 0.9 1.3 1.5 1.8 0 0.3-0.3 1.3 0.1 1.4l-0.2 0.6c-0.1-0.1-0.3 0-0.4 0.2-0.1 0.3-0.8 1.3-0.4 1.5l-0.2 0.5c-0.2-0.1-0.4-0.1-0.5 0.1-0.1 0.2-0.9 1-0.8 1.2-1.2-1.8 2-3.1 0.3-4.1 0.2 0.6 0.7 0.6 0 1.2-0.8-2.7-3.9-1.8-5.3-4.9 0.4 0 0.7 0 1.1 0 0.5 0 0.1-0.9 0.9-0.6-1.1-0.8-0.5 0.6-1.2 0.4-0.7-0.1-1.4 0-2.1-0.1-0.1-0.1-1 0.4-1 0.5 0 0.5-0.4 1.3 0 1.7 0.6 0.3 0.7 0.8 0.7 1.5-0.2-0.3-0.6-0.4-0.7-0.8q0.2 0 0.3 0.1c-0.1-0.2-0.2-0.3-0.5-0.4 0.2 0.6-0.4 0.7 0 1.2 1-0.2 1.1 1 1.3 1.7-0.7-0.3-1.2-0.5-1.5-1.2-0.2 1.1 1.3 0.9 1.1 1.6-0.4-0.4-1.4-0.6-1.4-1.2 0-0.3-0.2-1.2-0.5-1.3-0.1-0.3-0.2-0.5 0-0.8 0.3-0.6 0.3-1.2 0.4-1.9 0-0.6 0.2-1.4 0.9-1.4 0.9 0 1.6-0.6 2.4-0.8 0.2-0.9 1.2-1.1 2-0.9-0.2-0.4-1-0.2-1.3-0.2-0.9 0.2-0.6 0.9-1.4 1.1-0.2-0.3 0-0.7-0.1-1-0.3-0.1-0.1 0.7-0.2 0.9 0 0.3-0.3 0.3-0.5 0.5q-0.1-0.2-0.1-0.3c0.1 0 0.2-0.1 0.3-0.2 0-0.1 0.3-1.1 0.2-1.2 0.4 0.3 1 0.2 1.2-0.2q-0.2-0.1-0.4-0.1c-0.2 0.2-0.4 0.2-0.5 0.1 0.1-0.1-0.1-0.3-0.2-0.3-0.1-0.2 0.1-0.4 0.3-0.5v-0.3c-0.5 0-0.8 0.5-0.6 1l-0.2 0.1c-0.8-0.3-0.7 0.3-0.9 0.8-0.4-0.4-0.9-0.7-1.3-1.1-5.2-3.6-14.1-2.1-16.9 3.5-0.2-0.3-0.4-0.5-0.5-0.9 0-0.8-1-1.5-1.8-1.2 0.9 0 1.6 0.7 1.6 1.6 0.7 0.6 1.1 1.6 2 2.1 0.5 0.1 1.2 0.5 1.4-0.3 0.6-0.2 1.3 0.4 1.2 1-0.1-0.1-0.3-0.3-0.5-0.3 0 0-0.1-0.1-0.1-0.1-0.3 0.1-0.5 0.3-0.9 0.2 0.3 0.2 0.4 0.3 0.6 0.2 0.8-0.3 1.1 0.5 0.9 1.3-0.2-0.3-0.3-0.5-0.5-0.8-0.5 0.3-0.9 0.1-1.3-0.2 0.3 0.8 1.2 0.2 1.4 0.9 0.1 0.4 0.1 0.7-0.2 1h-0.1c0-0.2 0.1-0.4-0.1-0.6-0.1 0-0.1-0.1-0.1-0.1-0.5 0.3-0.7 0.1-0.9-0.2-0.2-0.3-0.5-0.6-0.9-0.7 0.1 0.3 0.2 0.6 0.4 0.9-2.2-0.2-0.8-0.7-1.8-1.5 0 0.4 0 0.8 0.1 1.2-1.9-0.7-0.5-1.1-1.2-1.8q-0.1 0.4-0.3 0.9c-0.3 0-0.4-0.5-0.6-0.7-0.3-0.3 0-0.6 0.2-0.9-0.3-0.1-0.6-0.1-0.6-0.5-0.1-0.6-0.8 0-1.1 0.2 0.3-0.1 0.5-0.1 0.8-0.2 0 0.3 0.3 0.5 0.5 0.7-0.4 0.5-0.1 0.5 0.1 1-0.4 0.5-1.1 0.4-1.6 0.4-0.5 0.1-2.7 1.3-1.8 1.8 0.7 0 0.2 0.4 0.1 0.8-0.6-1-1.2-0.6-0.5-1.7-1.1 0.8-0.4 0.8 0.1 1.6 0.4 0.5 0.4 1.1 0.8 1.7 0.1 0.2 0.1 0.4-0.1 0.7-0.1 1-0.9 1.9-0.7 3-0.7-0.2-0.7-1.2-0.6-1.7-0.4 0.6-1.2 0.9-1.5 1.5-0.3 0.9-0.3 2 0.3 2.7 0.4 0.7 1.2 0.1 1.7 0.4 0.4 0.3 0.7 0.8 0.6 1.4-0.2-0.3-0.4-0.6-0.6-0.9-0.5 0.5-0.9-0.2-1.3-0.2 0.6 1 1.5-0.2 1.9 1.7q-0.2-0.2-0.5-0.4c-0.2 0.3-0.6 0.1-0.8-0.1-0.4-0.3-1-0.1-1.1-0.8-0.5 1.1 1.6 0.5 1.4 2-0.2-0.2-0.5-0.3-0.6-0.6-0.2 0.1-0.2 0.4-0.5 0.4-0.2-0.1-0.4-0.1-0.5-0.3q0-0.2-0.2-0.3c-0.4-0.2-0.4-0.8-0.5-1.2-0.1 0 0 0-0.1 0q0 0.2-0.1 0.5c-0.6-0.3-0.7-1-0.5-1.6-0.2 0.2-0.7 0.9-0.8 1.2-1.7-1.9 0.6-1.4 0.2-2.5q-0.6 0.3-1.2 0.6c-0.2-2.1 0.9-0.9 1.3-2.1q-0.6 0.2-1.3 0.4c0.2-1 0.4-1.4 1.5-1.3-0.2-0.3-0.1-0.7 0.3-0.7 2.5-0.3-0.2-3 0.9-4.3-0.2 0.1-0.3 0.3-0.4 0.5-0.2 1.9-2.7 1.5-3 3.2q-0.6-0.6 0.1-1.4c-1.1-0.2-2.2-1.2-1.9-2.3 0.3-1 1.2-2 0.4-2.9 0.4 0 0.6 0.3 0.8 0.6 1.1-1.1 2.3-2 3.2-3.3 1.8-2.5-2.2-3.4-1.8-0.7-0.7-0.4-0.9-1.4-0.1-1.8-0.8 0-1.4-0.1-1.5-1 0.6 0.3 1.2 0.3 1.9 0.3-1.4-0.3-2.3-0.2-2.2-2.1 0.5 1.3 2.1 1.2 3.2 1.6-0.2-0.4 0-0.7 0.4-1-0.6 2 4.1 2.2-0.8 6.8 0.8-0.1 1.5-0.4 2.3-0.5-0.9 1.7-2.3 0.8-3.4 1.4 0.9-0.2 1.6 0.1 2.4 0.1-1.1 1.3-1.8 0.3-3 0.8 1.3-0.2 1.8 0.8 1 1.7 0.1-1.2-1.7-1.4-1.9-0.2-0.7 1.6 1.7 2.3 2.6 1.1 1.7-2.4 3.8-4.5 5.8-6.7q0.7 0.4 1.6 0.5c-0.2-0.5-0.3-1-0.3-1.5 0.8-0.6 1.2 0.4 1.7-0.7 0.3 0 0.5-0.2 0.7 0 0.3 0.4 0.6 0.8 0.6 1.4 0.4-0.2 0.6-0.6 0.7-1 1.9 0.2 1.4-0.5 3.8-1.7q0 0.1 0 0 0 0 0 0-0.1-0.5-0.3-1c-0.1 0-0.7-0.4-0.8-0.5 0.1-0.1 0.3-0.7 0.4-0.9-0.9-3.3-1.3-3.5-1.8-3.6v-0.1l1.8-0.5v0.1c-0.4 0.3-0.6 0.8-0.3 1.5 0.4-0.2 0.7-0.7 0.7-1.1 0 0 0.1 0 0.1 0l0.6 2c0 0-0.1 0-0.1 0-0.3-0.3-0.7-0.5-1.1-0.4 0.5 1.7 3 1.2 2.6-0.3-0.3-0.6-0.9-0.2-0.7 0.4-1.4-0.5-0.5-2.5 0.7-1.3-0.4-0.8-0.7-1.5-0.2-2.2 0.7 0.4 0.9 1.1 0.7 2.1 0.8-1.8 2.2 0.1 1.1 1 0.2-1.3-1.5-0.4-0.3 0.6 1 0.8 2.4-0.1 2.4-1.4-0.6 0-1.1 0.4-1.2 0.9 0 0-0.1 0-0.1 0l-0.1-2.3c0 0 0.2 0 0.2 0 0.1 0.4 0.6 0.8 1.2 0.9 0-0.8-0.4-1.3-0.9-1.4v-0.1h2.6v0.1c-0.5 0.1-0.9 0.6-1 1.4 0.7-0.1 1.2-0.5 1.3-0.9 0 0 0.1 0 0.1 0l-0.1 2.3c0 0-0.1 0-0.1 0 0-0.5-0.5-0.9-1.1-0.9 0 1.3 1.3 2.2 2.4 1.4 1.1-1-0.5-1.9-0.3-0.6-1.2-0.9 0.2-2.8 1-1-0.1-1 0.1-1.7 0.7-2.1 0.5 0.7 0.3 1.4-0.1 2.2 1.2-1.2 2 0.8 0.6 1.3 0.3-0.6-0.3-1-0.6-0.4-0.5 1.5 2 2 2.6 0.3-0.5-0.1-0.9 0.1-1.1 0.4 0 0-0.1 0-0.1 0l0.6-2c0 0 0.1 0 0.1 0-0.1 0.4 0.2 0.9 0.7 1.1 0.2-0.7 0.1-1.2-0.4-1.5v-0.1l1.8 0.5v0.1c-0.5 0.1-0.8 0.3-1.8 3.6 0.1 0.2 0.4 0.8 0.5 0.9-0.2 0.1-0.7 0.5-0.9 0.5q-0.1 0.6-0.3 1.1c0.6 0.3 1 0.6 1.2 0.8 0.4 0 0.8 0.1 1.2 0.3 0.2-0.2 0.4-0.1 0.7-0.2 0-0.5 0.3-0.8 0.9-0.9-0.1-0.5 0-1.2-0.4-1.7 0.8 0 0.8-0.2 1.2-0.8-0.6-0.4-0.2-0.6 0.3-0.6 0.4 0.1 0.4 0.3 0.8 0-0.2-0.9-2.4 0-1.4-1.3q0.1-0.2 0.3-0.2c1.6-0.1 2.5-1.3 4.2-0.9 0.1 0.2 0.1 0.3-0.3 0.3 0.2 0.3 0.8 0 0.5-0.4-0.2-0.5-0.2-1-0.2-1.5 0.4 0.1 0.6 0.7 0.8 1 0.2 0.3 0.1 0.6 0.2 0.9 1.4 1.7 1.1 4 0.1 5.8 0.2-0.1 0.3 0 0.4-0.2 0.2 0.4 0.7 1.2 0.7 1.2 0 0-1.8 0.8-1.9 1.5q0.3 0.9 0.8 1.6c0-0.1 0.7-0.2 0.8-0.2 0.2-0.6 1.1 0.3 1.4 0.4 0.2 0.2 0.1 0.5 0 0.7l0.3 0.8h0.1zm-7.6-10.7c-0.2-0.1-0.4 0.1-0.2 0.2q-0.2 0-0.3 0c0.1 0.6 0.9 0.1 0.5-0.2zm-15.8 2.2l-1.2-0.5-0.5 0.9 0.9 0.6zm1.6-1.1c-1.3 0.2-1 1.7 0.3 1.4 1.3-0.3 1.1-1.7-0.3-1.4zm4.6 0.3l-1.3-0.9-1.3 0.9 1.3 1zm0.8 0.1c-0.2 0.9 1.9 1.3 2.1 0.4 0.2-0.9-1.9-1.3-2.1-0.4zm3.7 1.6l0.8-0.5-0.4-0.9-1.2 0.4zm9.6-4.4q0-0.5-0.4-0.9c0 0.6 0.1 0.8 0.4 0.9zm-2.6 1q0.1 0 0.2-0.1c0.3 0.5 0.6 0.2 0.9-0.1-0.7-0.4-0.7-0.6-1.1 0.2zm-1.6 2.6c-0.1 0.3-0.3 0.5-0.3 0.7 0.2 0 0.3 0 0.5 0 0.2-0.5 0.7-0.6 0.9-0.1 1-1 2-0.6 3-1.2 0.4-0.3 0.5-1.2 0-1.5 0.7 1.6-1.2 2-2.3 1.4-0.4-0.1-1.6-0.4-1.5 0.4 0.1 0.1 0.1 0.3 0.4 0.3-0.3 0.2-0.5 0.1-0.7 0zm3.8 4.7l-0.1-0.6 0.3 0.1c0.3-0.2 1.6-0.8 1.6-0.8l-0.6-0.6c0 0 0 0.4-0.1 0.5q-0.1 0-0.2 0c0-0.2 0-0.5 0-0.5l-0.6 0.5c0 0 0.3 0 0.4 0.1q0 0.1 0 0.2c-0.6 0.2-1.3-0.3-0.9-0.7 0.2-0.2 0.4 0 0.2 0.2 0.6 0.1 0.6-0.9-0.1-0.6 0.3-0.2 0.5-0.4 0.4-0.7-0.3 0-0.5 0.2-0.6 0.6 0-0.8-0.9-0.3-0.6 0.2 0.2-0.5 0.7 0.1 0.1 0.3-0.5 0.1-1-0.3-0.8-0.8q0-0.1 0.1-0.1c0.2 0.1 0.3 0.5 0.3 0.5l0.4-0.8c0 0-0.4 0.1-0.6 0.1q0-0.1-0.1-0.1c0.2-0.2 0.6-0.3 0.6-0.3l-1.1-0.5c0 0 0.3 0.4 0.2 0.6q-0.1 0.1-0.1 0.1c-0.2-0.1-0.3-0.5-0.3-0.5l-0.4 0.9c0 0 0.4-0.2 0.6-0.2q0 0.1 0 0.1c-0.2 0.5-0.9 0.6-1.1 0.1-0.3-0.5 0.5-0.7 0.2-0.2 0.6-0.1 0.4-1.1-0.3-0.5 0.2-0.4 0.3-0.6 0.1-0.8-0.3 0.2-0.4 0.4-0.3 0.7-0.3-0.6-1 0-0.5 0.4 0-0.3 0.3-0.3 0.3 0 0 0.5-0.9 0.5-1.1-0.2q0.1 0 0.1-0.1c0.1 0.1 0.3 0.4 0.3 0.4l-0.1-1c0 0-0.1 0.3-0.2 0.4q-0.1-0.1-0.1-0.2c0-0.2 0.2-0.5 0.2-0.5h-0.7c0 0 0.3 1.7 0.3 1.7l0.4 0.3-0.5 0.3c0 0.1 0 0.2 0 0.2 1.2-0.1 4 1 4.9 1.9 0 0 0.1-0.1 0.1-0.1zm2.8 2.6c0.1-0.2-0.8-0.6-0.8-0.7 0 0.2-0.2 0.3-0.3 0.3q0 0.1 0 0.2l0.8 0.5q0 0 0 0c0-0.2 0.1-0.3 0.3-0.3z">
                      </path>
                      <path class="s0"
                        d="m52.1 27.7q-0.1-0.2-0.1-0.3c0 0-0.2 0.9-0.2 0.9q0.1 0.1 0.1 0.2c0.1 0 0.3 0.1 0.3-0.1l0.2-0.7c-0.1 0.1-0.3 0.1-0.3 0z">
                      </path>
                    </g>
                    <path class="s0"
                      d="m40.6 49c-2.1-0.8-3.7 1.2-1.9 1.6-1.9 0.1-1.6-2.6-2.4-2.5 0.7 0.8 0.7 2.2 1.4 2.5 1.3 0.6 2.6 0.7 4 0.6-0.7-0.6-0.9-1.4-1-2.2z">
                    </path>
                    <path class="s0"
                      d="m47.2 50.5c1.8-0.3 0.2-2.4-2-1.5-0.1 0.8-0.3 1.6-1 2.2 1.4 0.1 2.7 0 4-0.6 0.7-0.4 0.7-1.8 1.4-2.5-0.8-0.2-0.5 2.5-2.4 2.5z">
                    </path>
                    <path class="s0"
                      d="m61.3 33.8q0 0.1 0 0.1c0.1-0.1 0.3-0.1 0.3 0 0.1 0 0.1-0.3 0.1-0.4q-0.2-0.2-0.4-0.4v0.7z">
                    </path>
                    <path class="s0"
                      d="m60.7 36.4c0-0.1 0.6-1 0.4-1.1-0.1 0-0.2 0-0.2-0.1-0.1-0.1-0.5 0.9-0.5 0.9 0.1-0.1 0.4 0.1 0.3 0.3q0 0 0 0z">
                    </path>
                    <path class="s0"
                      d="m66.9 32.2c-0.5 0.2-0.7 0.5-0.8 1-1.2-1.8-3.3-3-3.6-5.1 0.2-1.8 2.5-1.4 2 0.4 1.2-0.6 0.6-1.8-0.5-2 1.2 0.1 1.9 1.1 2.7-0.6-0.7 0.3-1.8 0.1-2.2 0 1.6-0.2 2.4-0.2 2.3-2-0.5 1.1-1.9 1.1-2.9 1.5q0.1-0.8-0.5-1c0.4 2.7-4.8 1.8 0.9 7.8-0.7-0.4-1.5-0.3-2.2-0.7 0.5 1.4 1.4 1.1 2.6 1.6-1.3 0-1.6 1.2-0.7 1.8-0.3-0.9 1-1.6 1.7-0.8 1.5 1.9-1.2 4.5-3.7-0.2 0.1 0.2-0.1 0.5-0.4 0.4l-0.2 0.7c0.5 0.2-0.3 1.3-0.4 1.6-0.1 0.2-0.3 0.3-0.5 0.2l-0.2 0.5c0.3 0.3-0.6 1.2-0.7 1.4-0.1 0.2-0.3 0.2-0.4 0.2l-0.1 0.2c0.6 0.7 0.9 1.3 0.7 2 0.5-0.4 0.8-1.6 0.4-2.2 0.4 0.5 1.1 0.8 1.3 1.4 0.3 1.1 0.1 2.2-0.7 3-0.3 0.3-0.2 0.5-0.2 0.9-0.2 0.6-1 0.6-1.2 1.1-0.2 0.5-0.5 0.9-0.7 1.3 0.8-0.1 0.7-1.2 1.5-1.5-0.3 0.5-0.6 0.9-0.9 1.5 0.7-0.2 1.9-0.3 1.7-1.3-0.1-0.4 0.3-0.7 0.3-1.1 0.5-0.2 0.4-0.4 0.6-0.8 0.1 0.3 0.1 0.5 0.1 0.7-0.1-0.1-0.1-0.2-0.1-0.3-0.4 0.5-0.1 1-0.1 1.5 1.8-1.6-0.6-1.6 1.2-5.1 0.5-0.7-1.2-0.7-1.3-2.3-0.1-0.7 0.5-1.2 0.6-1.9 0.7 1.3 3.3 1.2 2.9 2.9 0.5-0.4 0.5-1.1 0.3-1.6 2.6-1 0.5-3.4 1.4-5.1z">
                    </path>
                    <path class="s0"
                      d="m59.1 38.4q0.1 0 0.2 0.1 0 0 0.1 0c0-0.1 0.6-0.9 0.6-1q-0.2 0-0.2-0.1c-0.1-0.1-0.1-0.1-0.2 0 0 0.1-0.7 0.9-0.6 1q0.1 0 0.1 0z">
                    </path>
                    <path class="s0" d="m58.8 38.6c0 0 0 0 0 0z"></path>
                    <path class="s0"
                      d="m33.6 42.2c0.3 0 0.5 0.1 0.8 0q-0.6-1-1.2-2c-0.7 0.8-1.9 0.3-2.7-0.2-0.6-0.5 0.8-1.2 0.3-2.7 0.6 0.9-0.5 1.8 1.2 2.3-0.5-0.7-0.4-1.6-0.6-2.4 0-0.2-0.1-0.3 0-0.5 0.1-0.2 0.1-0.4-0.2-0.5-1.8-1-1.5-0.5-3.3-0.8-0.4 0.8 0.5 1.5 0.4 2.3-0.2 0.4 0.4 0.4 0.4 0.7 0.1 0.6 0.1 1.4-0.6 1.6-0.3 0.2 0 0.6 0.2 0.7-0.5 1.1-0.1 1.3 0.8 1.8 0-0.4 0-0.8 0.2-1.1 1.2 0.8-0.6 0.9 1.8 1.9-0.3-0.4-0.2-0.8-0.3-1.2q0.4 0 0.7 0.1c0.3 1.1 0.9 1.2 1.9 1.1-0.3-0.4-0.5-0.8-0.7-1.2 0.3 0.1 0.6-0.2 0.9 0.1z">
                    </path>
                    <path class="s0"
                      d="m55.4 36c-0.3 0-0.4 0.1-0.3 0.5-0.4 0.8-0.4 1.7-1 2.4 1.3-0.4 1-0.9 1.4-1.9-0.1 1.4 0 1.4 0.5 2.3-1.1 0.8-2.8 0.1-3.4 1.6 0.2 0.1 0.4 0 0.6 0-0.1 0.2-0.2 0.4-0.4 0.5q0.1-0.2 0.1-0.3c-0.4-0.1-0.7 0.8-1 1.1 2.8-0.6-0.3-1.4 5.2-2.1 1-0.4-0.9-1.1 1-2.4 0.2-0.6 0.3-1.3 0.6-1.9 0.1-0.2 0-0.5-0.2-0.6-0.9 0.6-1.2-0.4-3.1 0.8z">
                    </path>
                    <path class="s0"
                      d="m27.2 24.5q0-0.3 0-0.6-0.3 0-0.6-0.1c0.2-0.2 0.6-0.2 0.8-0.1-0.2 0.9 0.2 1.5 1.1 1.5q0.5-0.6 0.9-0.2c-1.3-0.1-0.3 1.3 0.3 0.8 0.2-0.2 0.7-0.5 0.6-0.8-1-0.8-1 0.3-1.2-1.5q0 0-0.1 0c-0.1 0.3-0.4 0.6-0.7 0.3-0.1-0.1-0.2-0.2-0.3-0.2 0.6-0.6 1.5 0.2 1.4-1.1 0.8 1 0.9-0.1 1.6-0.1 0 0.7-0.2 0.7-0.8 0.6 0.2 0.2 1 1 0.5 1.1-0.2-0.5-0.5-1-1.1-1.1-0.4 0.5-0.2 1-0.1 1.5 0.4-0.1 0.7-0.4 1.2-0.4 0.1 0.4-0.6 0.7-0.2 1.1 0.7 0.1 1.4 0.1 1.2-0.8-0.2-0.1-0.5-0.2-0.7 0 0-0.4 0.4-0.4 0.7-0.4 0.6-0.6 0.4-1.5-0.3-2 0.2-0.2 0.4-0.4 0.7-0.5-0.1 0.3-0.4 0.3-0.4 0.5q0.2 0.3 0.4 0.5c0.4-0.1 0.4-0.7 0.2-1.2-0.4 0.1-1.2 0.4-1.2 0.4-0.4-0.1-0.2 0.1-0.1 0.3-1.2 0.2-2.4 0.5-3.3 1.3-0.2 0.1-0.3 0-0.3-0.2-0.2-0.2-0.2 0.1-0.2 0.2 0 0-0.7 0.2-1.1 0.4 0.3 0.4 0.6 1 1.1 0.8z">
                    </path>
                    <path class="s0"
                      d="m31.8 24.1c0.1 0.5 0 1-0.4 1.4 0.6 1 1.5 1.7 1.9 2.7 0.8-1.6-0.1-2.2-1.3-3.1 0.8 0.3 1.6 0.5 2 1.3 0.1-1.4-0.5-2.1-1.9-2.4q0 0 0 0c0.6 0 1.1 0 1.7 0.3-0.2-0.4-0.5-1.1-1.1-1 0.2-0.4 0.2-0.7 0-0.9 0 0.3-0.2 0.4-0.5 0.4 0.1 0.5-0.1 0.9-0.4 1.3z">
                    </path>
                    <path class="s0"
                      d="m27.5 27.3c0.1 0.4 0.4 0.9 0.8 1-0.2-0.7 0.3-1.4 0.5-2.1 0 1.6-0.9 2.5 1.3 3.1-0.5-1-0.2-2.1-0.5-3.1-0.4-0.2-0.8-0.3-1-0.6-0.1-0.1-0.2-0.2-0.4-0.2-0.4-0.1-0.8-0.2-1-0.6-0.3 0.1-0.5 0.1-0.7 0-0.1 0.3 0.2 0.7 0.6 0.6-0.3 0.4-0.1 0.8 0 1.3 0.2-0.5 0.6-0.8 0.9-1-0.2 0.5-0.8 1-0.5 1.6z">
                    </path>
                    <path class="s0"
                      d="m36.4 43.9c0.3-0.3-0.1-0.5-0.3-0.7-2.6-2.5-3.6-5.7-3.4-9.3q-0.1-0.1-0.3-0.2c-0.4 3.9 1 7.7 4 10.2z">
                    </path>
                    <path class="s0"
                      d="m60.4 23.1c-0.2 0.5 0.5 0.7 0.5 1.2q-0.3-0.3-0.5-0.5c-0.3 0.9 0.8 1.2 1.1 2 0.5-1.4 0.2-2.2-1.1-2.7z">
                    </path>
                    <path class="s0"
                      d="m30.9 27c-0.7 0.1-0.6-0.8-0.8-1.3q-0.2 0.2-0.4 0.4 0.2 0.7 0.5 1.5 0.1-0.1 0.3-0.2c0.5 0.3 0.9 0.1 1.1-0.5 0.1 0.1 0.3 0.1 0.4 0q-0.4-0.7-0.7-1.4c-0.1 0-0.3-0.2-0.4 0 0.1 0.4 0.7 1.3 0 1.5z">
                    </path>
                    <path class="s0"
                      d="m60.3 20.9c0 0 0 0 0 0q-0.4 0-0.7 0c0.2 0.8 1.2 0.4 1.8 0.8-0.4-0.7-0.6-1.3-1.4-1.4 0.1-0.4 0-0.8-0.3-0.9q0.1 0.5-0.4 0.7c-0.2 0.7 0.5 0.6 1 0.8z">
                    </path>
                    <path class="s0"
                      d="m60.1 25.5h-0.1c-0.1 0.7 0.4 1.4 0.7 2 0.5-1 0.5-2.1-0.4-2.8-0.2 0.5 0.1 1 0.3 1.4q-0.1 0.1-0.1 0.1-0.2-0.4-0.4-0.7z">
                    </path>
                    <path class="s0"
                      d="m59.9 21.5c0.3 0.7 0.8 0.6 1.1 1q-0.4-0.1-0.7-0.2c0 0.8 0.9 0.9 1.5 1.2-0.1-1.3-0.7-1.8-1.9-2z">
                    </path>
                    <path class="s0" d="m57.1 20.2c0.3 0 0.8 0.2 1.1 0 0-1-1.3-0.9-2.1-0.9 0.3 0.4 0.5 0.8 1 0.9z">
                    </path>
                    <path class="s0"
                      d="m53.4 35.3q-0.4 0-0.9-0.1 0.1 0.3 0.1 0.4 0.2 0.1 0.4 0.1c0.1 0.9-0.4 0.9-1.1 0.6-0.1 1.1 1.6 1 1.5-1z">
                    </path>
                    <path class="s0"
                      d="m52.8 31.8c-1 1.2-1 1.4 0.5 1.9 0-0.2-0.1-0.3-0.1-0.4q-0.4-0.1-0.8-0.3 0.3-0.4 0.5-0.7 0-0.2-0.1-0.5z">
                    </path>
                    <path class="s0"
                      d="m48.2 27.4q0.2 0 0.4-0.1c0.2-0.5-0.2-0.6-0.6-0.9-0.1 0.5-0.6 0.7-0.8 1.1 0.4 0 0.6-0.1 0.9-0.4q0 0.1 0.1 0.3z">
                    </path>
                    <path class="s0" d="m50.4 30c0.2-0.3 0.9-1.3 0.5-1.6-0.2 0.1-0.6 0.1-0.5 0.4q0 0.6 0 1.2 0 0 0 0z">
                    </path>
                    <path class="s0"
                      d="m57.8 19.2c0 0 0.1-0.1 0.1-0.1-0.4-0.6-0.6-0.7-1.4-0.7 0.1 0.7 0.8 0.7 1.3 0.8z"></path>
                    <path class="s0" d="m55.9 17.4c0 0.5 0.4 0.8 1.1 0.8-0.1-0.5-0.5-0.8-1.1-0.8z"></path>
                    <path class="s0" d="m54.3 22.7c-0.6-0.3-1.1 0.1-1.6-0.1 0.1 0.8 1.1 0.3 1.6 0.1z"></path>
                    <path class="s0" d="m55.4 16.6c0.1 0.5 0.3 0.6 0.9 0.5-0.2-0.4-0.5-0.5-0.9-0.5z"></path>
                    <path class="s0" d="m55.7 16.3c-0.2-0.4-0.3-0.5-0.8-0.4q0.3 0.6 0.8 0.4z"></path>
                    <path class="s0"
                      d="m53 30.5q0.2 0.4 0.4 0.7c0.6 0 0.1-0.4 0-0.6-0.1-0.1-0.2-0.1-0.3-0.1q-0.1 0-0.1 0z"></path>
                    <path class="s0"
                      d="m51.5 31.1c0.3-0.1 0.5-0.2 0.8-0.4-0.1-0.1-0.1-0.2-0.2-0.3-0.2 0.3-0.7 0.3-0.6 0.7z"></path>
                    <path class="s0" d="m55 15.6c0.1-0.3-0.3-0.6-0.6-0.5 0.1 0.3 0.4 0.6 0.6 0.5z"></path>
                    <path class="s0" d="m48.9 31z"></path>
                    <path class="s0" d="m28.4 20.4c0.1-0.2-0.1-0.4-0.2-0.2-0.2 0.1 0 0.3 0.2 0.2z"></path>
                    <path class="s0" d="m28.6 20.8c0.1-0.2-0.1-0.4-0.2-0.2-0.2 0.1 0 0.3 0.2 0.2z"></path>
                    <path class="s0"
                      d="m27.6 18.9l-0.4 0.1 0.2 0.4 0.2-0.3q0.1 0.1 0.1 0.1c0 0 0 0.6 0 0.6 0.1 0.5 0.9 0.2 0.6-0.3l-0.4-0.4q0 0 0-0.1l0.4 0.1-0.2-0.5-0.3 0.2q0 0 0 0v-0.4c-0.2 0-0.4 0.1-0.5 0.2l0.3 0.3q0 0 0 0z">
                    </path>
                    <path class="s0" d="m26.6 21.3c0.2 0.1 0.2-0.3 0-0.3-0.3 0-0.3 0.3 0 0.3z"></path>
                    <path class="s0" d="m26.5 21.8c0.2 0 0.3-0.3 0-0.3-0.2 0-0.2 0.3 0 0.3z"></path>
                    <path class="s0" d="m27.3 20.2c0.2 0.1 0.2-0.3 0-0.3-0.3 0-0.3 0.3 0 0.3z"></path>
                    <path class="s0" d="m26.7 20.9c0.2 0 0.2-0.3 0-0.3-0.2 0-0.2 0.3 0 0.3z"></path>
                    <path class="s0"
                      d="m28.8 21.4c0-0.2 0.1-0.6 0.1-0.6-0.1 0.1-0.5 0.3-0.7 0.3 0 0 0.3 0.2 0.5 0.3-0.2 0.1-0.3 0.1-0.5 0l0.2 0.6c0.1-0.3 0.2-0.4 0.3-0.5 0.3 0.5-0.4 1-0.8 0.6-0.1-0.1 0.1-0.3 0.2-0.2 0-0.3-0.3-0.3-0.4-0.1 0-0.3-0.1-0.5-0.4-0.6-0.1 0.3 0 0.5 0.4 0.7-0.2-0.1-0.5 0.1-0.2 0.4 0-0.2 0.2-0.3 0.3-0.1 0.2 0.4-0.3 0.6-0.7 0.1q0.1 0 0.3 0.1l-0.4-0.5q0 0.2 0 0.3c-0.1-0.1-0.1-0.1-0.2-0.3l-0.2 0.2c0.2 0.2 0.5 0.5 0.9 1 0.5-0.5 2.5-1.3 3.3-1.3-0.1-0.6 0-1 0-1.4h-0.3c0.1 0.2 0.1 0.3 0.1 0.4q-0.1 0-0.3-0.2l0.1 0.6q0.1-0.2 0.2-0.3c0 0.6-0.5 0.8-0.6 0.4-0.1-0.1 0.1-0.3 0.2-0.1 0.1-0.4-0.2-0.4-0.3-0.2 0.1-0.4 0-0.6-0.3-0.8-0.2 0.3-0.1 0.6 0.2 0.8-0.3-0.1-0.5 0.1-0.3 0.4 0.1-0.3 0.3-0.2 0.3 0 0.1 0.5-0.8 0.6-0.9 0.1 0-0.1 0.2-0.1 0.4 0.1l-0.1-0.6c-0.1 0.2-0.2 0.3-0.4 0.4z">
                    </path>
                    <path class="s0"
                      d="m38.3 40.1q0.4 0.2 0.8 0.5c-0.7 0.8 0.6 1.1 0.5 0.3 0.4 0.2 2.2 0.8 1.5-0.3-2.3 0.1-3.5-2.3-2.2-4.2 0.8 0.3 3.5-1 3.3 0.4 0.1 0.1 0.2 0.1 0.5 0.1 0.8-1.8-2-1.2-2.9-1-0.9 0.2-1.7-1.1-2.5-0.4-0.3 0.3-0.1 0.9 0.3 0.9 0.4 0.1 0.5-0.5 0.2-0.6 0.7-0.3 0.3 0.9 0.1 1.2-0.9-0.4-1 0.9-0.2 0.6q0.1 0.3 0 0.7c-0.9-0.2-0.6 1 0 0.5 0.2 0.2 0.3 0.5 0.3 0.8-0.9 0.1-0.1 1.3 0.3 0.5z">
                    </path>
                    <path class="s0"
                      d="m40.9 41.5q-0.1 0-0.1-0.1c-0.1 0.2-0.2 0.5-0.1 0.6l0.8 0.3 1-0.7 0.2-3.9-0.3 0.1c0 0-0.6 4.5-0.8 4.2 0-0.3 0.7-4.2 0.7-4.2 0 0-0.2-0.1-0.3-0.1 0 0.1-0.1 0.2-0.1 0.2l-1-1.4-0.2 0.1 1.2 1.5-0.1 0.3c-0.1-0.1-1.2-1.6-1.3-1.8h-0.3l1.5 1.9v0.3l-1.7-2.2h-0.2l1.8 2.4-0.1 0.3-2-2.7h-0.3l2.2 2.9v0.3l-2.5-3.2v0.3c0 0 2.3 2.9 2.4 3.1-0.1 0.4 0 0.4 0.1 0.7 0.1 0.4-0.1 0.9-0.5 0.8z">
                    </path>
                    <path class="s0"
                      d="m41.1 40.2l-2.3-3c0 0-0.1 0.1-0.1 0.2 0.2 0.2 2.2 2.9 2.2 2.9 0 0 0.2-0.1 0.2-0.1z"></path>
                    <path class="s0" d="m38.8 38.2q0.8 1 1.6 2.1c0 0 0.2 0 0.2 0l-1.9-2.5c0 0-0.1 0.3 0.1 0.4z"></path>
                    <path class="s0" d="m42.8 37.1q-0.4-0.1-0.8-0.1c-0.4 0.4 0.1 0.6 0.5 0.6 0.3 0.1 0.7-0.3 0.3-0.5z">
                    </path>
                    <path class="s0" d="m42.7 48c0 0.4 0.5 0.5 0.6 0.1 0.1-0.3-0.5-0.4-0.6-0.1z"></path>
                    <path class="s0" d="m43.2 45.9c0.1-0.4-0.6-0.5-0.6-0.1-0.1 0.4 0.6 0.6 0.6 0.1z"></path>
                    <path class="s0" d="m40.9 44.8c0.1-0.4-0.6-0.6-0.6-0.1-0.1 0.4 0.5 0.5 0.6 0.1z"></path>
                    <path fill-rule="evenodd" class="s0"
                      d="m45 48.6c-0.2 1.9-1.1 2.9-2 2.9-0.9 0-1.8-1-2-2.9 0.4 0 0.6 0.3 0.8 0.5 0.2-0.1 0.4-0.2 0.6-0.2q0.2 0 0.3 0.1c-0.7 0.3-0.4 1.4 0.3 1.4 0.7 0 0.9-1.1 0.2-1.4q0.2-0.1 0.3-0.1c0.3 0 0.5 0.1 0.7 0.2 0.2-0.2 0.4-0.5 0.8-0.5zm-0.4 0.4q-0.1 0.1-0.2 0.3l-0.2 0.2-0.2-0.1q-0.1-0.1-0.2-0.2 0.1 0.3 0.1 0.6c-0.1 0.5-0.5 0.8-0.9 0.8-0.5 0-0.9-0.3-0.9-0.8q-0.1-0.3 0-0.6-0.1 0.1-0.2 0.2l-0.2 0.1-0.2-0.2q-0.1-0.2-0.2-0.3c0.3 1.6 1 2.3 1.7 2.3 0.6 0 1.4-0.8 1.6-2.3z">
                    </path>
                    <path class="s0"
                      d="m38.6 43.5c0.3-0.4-0.8-0.9-0.9-1.1-0.1 0-0.3 0-0.4 0.1-0.3 0.3 0.7 0.8 0.9 1 0.1 0.1 0.3 0.1 0.4 0z">
                    </path>
                    <path class="s0"
                      d="m38.4 44.2c1.2 0 1-1.8-0.1-1.6 0.5 0.3 1 1 0.2 1.2-0.3 0.1-0.6-0.2-0.9-0.4 0 0.4 0.4 0.8 0.9 0.8z">
                    </path>
                    <path class="s0"
                      d="m36.8 44.5c0.3 0.5 1.7 1.8 2.1 1.2-0.7-0.4-1.9-1.3-1.4-2.4-1.1-0.7-0.2-1.7 0.7-0.8 0.8-0.6 1.8-0.2 2.7 0.4 0.3-0.7-1.2-1.1-1.6-1.3-0.4-0.2-1.8 0.1-2.3 0.2-0.3 0-0.5 0.3-0.5 0.6 0.1 0.4 0.1 1.8 0.3 2.1z">
                    </path>
                    <path class="s0"
                      d="m49.8 18.9l0.7 0.2c-1.1-2.2-3-3.8-5.2-4.4q-0.1 0.2-0.2 0.5c2 0.5 3.7 1.8 4.7 3.7z"></path>
                    <path class="s0"
                      d="m36.4 19.1l0.6-0.2c1-1.8 2.7-3.2 4.7-3.7q-0.1-0.3-0.2-0.5c-2.2 0.6-4.1 2.2-5.1 4.4z"></path>
                    <path class="s0" d="m48.3 15.6c0.5 0 0.5-0.7 0-0.7-0.5 0-0.5 0.7 0 0.7z"></path>
                    <path class="s0" d="m46.7 14.6c0.4 0 0.4-0.7 0-0.7-0.5 0-0.5 0.7 0 0.7z"></path>
                    <path class="s0" d="m45.8 14.3c0.4 0 0.4-0.7 0-0.7-0.5 0-0.5 0.7 0 0.7z"></path>
                    <path class="s0" d="m47.5 15.1c0.5 0 0.5-0.8 0-0.7-0.5-0.1-0.5 0.7 0 0.7z"></path>
                    <path class="s0" d="m49.1 16.2c0.4 0 0.4-0.7 0-0.7-0.5 0-0.5 0.7 0 0.7z"></path>
                    <path class="s0" d="m50.9 18.9c0 0.4 0.7 0.4 0.7 0 0-0.5-0.7-0.5-0.7 0z"></path>
                    <path class="s0" d="m50.5 18c0 0.5 0.7 0.5 0.7 0 0-0.4-0.7-0.4-0.7 0z"></path>
                    <path class="s0" d="m49.7 16.8c0.5 0.1 0.5-0.7 0-0.7-0.4 0-0.4 0.8 0 0.7z"></path>
                    <path class="s0" d="m50 17.2c0 0.5 0.7 0.5 0.7 0 0-0.4-0.7-0.4-0.7 0z"></path>
                    <path class="s0" d="m38.5 15.6c0.5 0 0.5-0.7 0-0.7-0.5 0-0.5 0.7 0 0.7z"></path>
                    <path class="s0" d="m37.8 16.2c0.4 0 0.4-0.7 0-0.7-0.5 0-0.5 0.7 0 0.7z"></path>
                    <path class="s0" d="m35.5 19.2c0.5 0 0.5-0.7 0-0.7-0.4 0-0.4 0.7 0 0.7z"></path>
                    <path class="s0" d="m39.3 15.1c0.5 0 0.5-0.8 0-0.7-0.5-0.1-0.5 0.7 0 0.7z"></path>
                    <path class="s0" d="m36.5 17.6c0.5 0 0.5-0.7 0-0.7-0.5 0-0.5 0.7 0 0.7z"></path>
                    <path class="s0" d="m36 18.4c0.4 0 0.4-0.7 0-0.7-0.5 0-0.5 0.7 0 0.7z"></path>
                    <path class="s0" d="m41 14.3c0.5 0 0.5-0.7 0-0.7-0.4 0-0.4 0.7 0 0.7z"></path>
                    <path class="s0" d="m37.1 16.8c0.5 0.1 0.5-0.7 0-0.7-0.5 0-0.5 0.8 0 0.7z"></path>
                    <path class="s0" d="m40.1 14.6c0.5 0 0.5-0.7 0-0.7-0.4 0-0.4 0.7 0 0.7z"></path>
                    <path class="s0"
                      d="m44 18h0.5c0-1.5 0.2-2.8 0.6-3.7 0.1-0.3-0.3-0.5-0.4-0.2-0.6 1.2-0.7 3-0.7 3.9z"></path>
                    <path class="s0"
                      d="m42.3 18h0.5c0-0.9-0.1-2.7-0.7-3.9-0.1-0.3-0.5-0.1-0.4 0.2 0.4 0.9 0.6 2.2 0.6 3.7z"></path>
                    <path class="s0" d="m43.4 18c0.5 0 0.5-0.8 0-0.8-0.5 0-0.5 0.8 0 0.8z"></path>
                    <path class="s0" d="m43.4 17c0.5 0 0.5-0.8 0-0.8-0.5 0-0.5 0.8 0 0.8z"></path>
                    <path class="s0" d="m43.4 16c0.5 0 0.5-0.8 0-0.8-0.5 0-0.5 0.8 0 0.8z"></path>
                    <path class="s0" d="m43.1 15.1c0.2-0.1 0.4-0.1 0.6 0 0.5-0.9-1.1-0.9-0.6 0z"></path>
                    <path class="s0" d="m43.7 14.3c0.4-0.9-1-0.9-0.6 0 0.2-0.2 0.4-0.2 0.6 0z"></path>
                    <path class="s0"
                      d="m43.2 11c-0.1 0.5-0.4 0.9-0.7 0.9v0.1h0.7q-0.1 0.1-0.1 0.1c-1.1 0.3-1.3 2-0.2 2.4-0.4-0.4-0.1-1.2 0.5-1.2 0.6 0 0.9 0.8 0.5 1.2 1.1-0.4 1-2.1-0.2-2.4q0 0 0-0.1h0.6v-0.1c-0.3 0-0.6-0.4-0.6-0.9 0.5 0 0.8 0.3 0.9 0.6h0.1v-1.7h-0.1c-0.1 0.3-0.4 0.5-0.9 0.6 0-0.5 0.3-0.9 0.6-0.9v-0.2h-1.8v0.2c0.4 0 0.6 0.4 0.7 0.9-0.5-0.1-0.9-0.3-1-0.6h-0.1v1.7h0.1c0.1-0.3 0.5-0.6 1-0.6z">
                    </path>
                    <path class="s0" d="m58.8 38.6q-0.1-0.1-0.2-0.2 0.1 0.1 0.2 0.2z"></path>
                    <path fill-rule="evenodd" class="s0"
                      d="m58.5 39.3l0.3-0.7c0.1 0.2 0.2 0.4 0.3 0.5l-0.2 0.4c0.1 0.1 0.2 0.3 0.1 0.5-0.2 0.2-0.4 1.6-0.9 1.3l-0.3 0.6c0.5 0 0.2 1.3 0.3 1.6 0 0.2-0.2 0.4-0.4 0.3v0.4c1.3 0.2 1.1 2.2-0.2 2.1-1.3 0.1-1.5-1.9-0.3-2.1v-0.4c-0.5 0-0.2-1.3-0.3-1.6 0-0.2 0.2-0.4 0.4-0.3l0.4-0.8c-0.2-0.1-0.3-0.3-0.2-0.5 0.2-0.2 0.5-1.6 1-1.3zm-0.3 5.9c0-0.3-0.2-0.6-0.5-0.7-0.1 0.2-0.4 0.2-0.4 0-1.7 0.8 0.6 2.5 0.9 0.7zm-0.5-1.8c0 0 0 0 0 0v-1.1q0-0.1-0.1-0.1-0.1 0.1-0.2 0c-0.2 0-0.1 1-0.1 1.1 0.1-0.3 0.4-0.1 0.4 0.1zm1-3.5q0-0.1-0.1-0.1c-0.1 0-0.2 0-0.2-0.1-0.2-0.1-0.5 0.9-0.6 1 0 0 0 0.1 0.1 0.2 0.1-0.1 0.2 0 0.2 0.1 0.2 0 0.5-1 0.6-1.1z">
                    </path>
                    <path class="s0"
                      d="m33.1 37.1l0.1 0.4 1.9-0.2-0.1-0.4c-0.1-0.1-1.3 0.2-1.3 0.2 0 0 1.2-1.4 1.2-1.6l-2 0.3v0.3c0.1 0 1.2-0.2 1.2-0.2 0 0-1 1.1-1 1.2z">
                    </path>
                    <path fill-rule="evenodd" class="s0"
                      d="m35.2 38.1c1 1-0.5 2.4-1.4 1.5-1.1-0.9 0.5-2.4 1.4-1.5zm-0.1 1c0.6-0.8-0.8-1.3-1.2-0.5-0.6 0.9 0.8 1.3 1.2 0.5z">
                    </path>
                    <path class="s0"
                      d="m35.1 41.8l0.3 0.4c0.4-0.4 1.1-0.9 1.6-1.1l-0.3-0.5c-0.1 0.2-0.4 0.4-0.6 0.6l-0.6-0.7c0.3-0.2 0.5-0.4 0.8-0.5l-0.3-0.4c-0.4 0.4-1.1 0.9-1.7 1.1l0.4 0.5c0.1-0.2 0.4-0.4 0.6-0.6l0.5 0.7c-0.2 0.2-0.5 0.4-0.7 0.5z">
                    </path>
                    <path class="s0" d="m34.9 34.9v-0.5c-0.5 0.2-1.5 0.2-2 0l-0.1 0.5c0.6-0.1 1.5-0.1 2.1 0z"></path>
                    <path class="s0"
                      d="m49.3 43.4c1.2-0.5 0.9-1.7-0.4-1.2-0.6-0.1 0.1-0.7 0.5-0.6l-0.3-0.3c-0.4 0.2-1.1 0.7-0.7 1.2 0.2 0.3 0.7 0 1 0 0.6 0.1 0 0.7-0.3 0.6">
                    </path>
                    <path class="s0"
                      d="m52.6 39.2l0.3-1.2c-0.1 0.1-1.7-0.4-1.9-0.5l-0.3 1.1 0.3 0.3h0.1q-0.1-0.4 0.1-0.9l0.6 0.2c-0.1 0.2-0.2 0.6-0.3 0.7h0.3l0.2-0.6 0.6 0.1q-0.1 0.3-0.3 0.5l0.3 0.3z">
                    </path>
                    <path class="s0"
                      d="m51.8 40.8l0.2-0.4-1.6-1-0.1 0.3c0 0.1 1 0.7 1 0.7 0 0-1.6 0.2-1.7 0.3l1.5 1.1 0.2-0.3c-0.1 0-0.9-0.6-0.9-0.6 0 0 1.4-0.1 1.4-0.1z">
                    </path>
                    <path class="s0"
                      d="m47.5 44.6l1.1-0.7c-0.1-0.1-1-1.4-1-1.6l-1 0.6v0.4q0.3-0.3 0.7-0.5l0.3 0.5c-0.1 0.1-0.5 0.3-0.6 0.3l0.2 0.2 0.5-0.3 0.4 0.5q-0.3 0.2-0.6 0.2v0.4z">
                    </path>
                    <path class="s0"
                      d="m35.5 30.9c-0.4-0.2-0.8 0.2-1.1 0.3-0.6 0-0.1-0.7 0.2-0.7l-0.3-0.2c-0.5 0.2-0.8 1.3 0 1.4 0.1 0 0.6-0.3 0.7-0.4 0.4 0 0.3 0.5 0.1 0.6 0.1 0 0.2 0 0.3 0 0.2-0.3 0.4-0.7 0.1-1z">
                    </path>
                    <path class="s0" d="m35.9 30.3c-0.9 0-1.1-1.6 0-1.3v-0.4c-1.4-0.1-1.4 2.1 0 2.1z"></path>
                    <path class="s0"
                      d="m38.1 27.6c0 0 0.6 0 0.6 0-0.2-0.4-0.4-0.7-0.4-0.7 0.2-0.1 0.7-0.3 0.9-0.3l-0.5-0.4-1.5 0.9 0.1 0.6h0.1q0.1-0.3 0.5-0.5 0 0.1 0.2 0.4z">
                    </path>
                    <path fill-rule="evenodd" class="s0"
                      d="m42.5 27.3c-0.3 0.3-0.7 0.2-1 0-0.9 0.5-2-0.7-1.2-1.5 0.8-0.9 2.4 0.1 1.6 1.2q0.4 0.3 0.6 0.3zm-1.2-0.3c0.8-0.3 0.1-1.4-0.5-1.2-0.8 0.3-0.1 1.5 0.5 1.2z">
                    </path>
                    <path class="s0"
                      d="m42.8 26.5c0-0.3 0-0.9-0.1-1.2h0.6c-0.1 0.3-0.3 1.7 0.3 1.6 0.2 0 0.5-0.1 0.5-0.3-0.1-0.4 0-1-0.1-1.3h0.6c-0.1 0.6-0.1 1.5 0 2h-0.5q0-0.1 0-0.2c-0.6 0.4-1.4 0.2-1.3-0.6z">
                    </path>
                    <path class="s0"
                      d="m45.6 27.5c0.1-0.5 0.3-1.3 0.6-1.7l-0.6-0.2c0 0.5-0.2 1.3-0.4 1.8q0.2 0 0.4 0.1z"></path>
                    <path class="s0" d=""></path>
                    <g>
                      <path fill-rule="evenodd" class="s0"
                        d="m44.2 33.9v-5.2h4.9v5.2zm0.2-2.4c0 0 0 0.1 0 0.1q0 0 0 0v-0.1zm0 0.1v2h0.2v0.2h1.8c0.1 0 0-0.2-0.1-0.1 0-0.2 0.2-0.2 0.3 0v-0.2h0.1l0.1 0.2c0-0.2 0.3-0.2 0.2 0-0.1-0.1-0.1 0.1 0 0.1h1.8v-0.2h0.1c0 0 0.1-2.5-0.1-2v0.1c-0.1 0-0.2-0.3 0-0.3l-0.2-0.1 0.2-0.1c-0.2 0-0.1-0.3 0-0.2 0.2 0.5 0.1-2 0.1-2h-0.1v-0.2h-1.8c-0.1 0.1-0.1 0.2 0 0.1 0.1 0.2-0.2 0.2-0.2 0.1l-0.1 0.1h-0.1l-0.1-0.1c0 0.1-0.2 0.1-0.2-0.1 0.1 0.1 0.2 0 0.1-0.1h-1.8v0.2h-0.2v2c0 0.1 0.2 0 0.1 0 0.2-0.1 0.2 0.2 0 0.2l0.2 0.1-0.2 0.1c0.2 0 0.2 0.3 0 0.3v-0.1c0 0-0.1-0.1-0.1 0zm4.5-2.6q0 0 0 0zm0 4.6q0 0 0 0zm-2 0.2zm-0.5 0zm0.5-5zm2 2.3z">
                      </path>
                      <path fill-rule="evenodd" class="s0"
                        d="m49.7 34.3l0.1 0.3-0.3-0.2c0 0.3-0.4 0.2-0.4 0h0.1c0 0.1 0.1 0 0.1 0q0-0.1-0.1-0.1h-2.4l0.1 0.1h-0.5l0.1-0.1h-2.4q-0.1 0-0.1 0.1c0 0 0.1 0.1 0.2 0 0.1 0.2-0.4 0.3-0.4 0 0 0-0.3 0.2-0.3 0.2l0.2-0.3c-0.3 0-0.2-0.4 0-0.3 0.2 0.8 0.1-2.5 0.1-2.6l-0.1 0.1v-0.4l0.1 0.1c0-0.2 0.1-3.4-0.1-2.6-0.2 0.1-0.3-0.3 0-0.3l-0.2-0.3c0.1 0 0.3 0.1 0.3 0.1 0-0.2 0.5-0.1 0.4 0.1-0.1-0.1-0.3 0.1-0.1 0.1h2.4l-0.1-0.2h0.5l-0.1 0.2h2.4c0.2 0 0.1-0.2 0-0.1h-0.1c0-0.2 0.4-0.3 0.4-0.1l0.3-0.1-0.1 0.3c0.2 0 0.1 0.4-0.1 0.3 0.1-0.1-0.1-0.2-0.1-0.1v2.7l0.2-0.1v0.4l-0.2-0.1c0 0.2-0.1 3.4 0.1 2.6 0.1-0.1 0.2 0 0.2 0.1 0 0.1-0.1 0.2-0.1 0.2zm-0.2-2.9q0 0 0 0zm-5.7-0.2q0 0 0 0zm0 0.2q0 0 0 0zm0.2-2.9v5.6h5.3v-5.6z">
                      </path>
                      <path class="s0" d="m48.9 31.6z"></path>
                      <path class="s0" d="m48.9 31z"></path>
                      <path class="s0" d="m44.4 31.6z"></path>
                      <path class="s0" d="m44.4 31z"></path>
                    </g>
                    <path class="s0"
                      d="m26.8 21.6l0.1-0.1c0.1-0.5 0.3-0.9 0.7-1.2q-0.1 0-0.1 0c-0.4 0.3-0.7 0.8-0.7 1.3z"></path>
                    <path class="s0" d="m28 20.9h0.1c-0.1-0.2-0.3-0.6-0.5-0.8-0.1-0.1-0.1 0-0.1 0.1q0.3 0.2 0.5 0.7z">
                    </path>
                    <path class="s0" d="m26.9 20.6c0.3 0 0.3-0.4 0-0.4-0.2 0-0.2 0.4 0 0.4z"></path>
                    <path class="s0" d="m30.3 19.8c-0.2 0.2-0.4-0.1-0.3-0.2 0.2-0.2 0.4 0 0.3 0.2z"></path>
                    <path class="s0" d="m30.6 20.1c-0.1 0.2-0.4-0.1-0.2-0.2 0.1-0.2 0.4 0 0.2 0.2z"></path>
                    <path class="s0" d="m29 19.5c-0.2 0.2-0.4 0-0.3-0.2 0.2-0.2 0.4 0.1 0.3 0.2z"></path>
                    <path class="s0" d="m29.9 19.6c-0.2 0.2-0.4-0.1-0.3-0.2 0.2-0.2 0.4 0.1 0.3 0.2z"></path>
                    <path class="s0" d="m30.3 20.2h-0.2c-0.4-0.3-0.8-0.4-1.3-0.4q0 0 0-0.1c0.5-0.1 1.1 0.1 1.5 0.5z">
                    </path>
                    <path class="s0" d="m29 20.5l-0.1 0.1c-0.1-0.2-0.3-0.6-0.3-0.9 0-0.1 0.1-0.1 0.1 0q0 0.3 0.3 0.8z">
                    </path>
                    <path class="s0" d="m29.4 19.5c-0.1 0.2-0.4-0.1-0.2-0.2 0.1-0.2 0.4 0.1 0.2 0.2z"></path>
                    <path class="s0"
                      d="m48.2 38.2c0.5 0 1.7-0.5 0.8-1-0.5-0.1-0.9 0.1-1.4 0.3-1.8 0.7-0.8-0.2-1.9-0.1 0.4 1 1.3 0.5 2.1 0.2 0 0.1-0.1 0.2-0.1 0.3q0.4-0.1 0.7-0.2c0.1-0.5 1-0.5 0.6 0-1 0.5-2.2 0.4-3.3 0.7-0.7 1.8-1.9 0.6-1.9 1.1-0.3 0-0.3 0.3 0 0.3 0 0.5 1.4-0.1 1.6-0.3q0.1-0.2 0.2-0.3c0.4 0.2 0.7-0.4 1.1-0.5 0.3-0.1 0.8-0.5 1.1-0.1 0.3 0.3 0.8-0.2 1.1 0.2-0.1 0.2 0.1 0.1 0.1 0.3 0 0.2 0.3 0.2 0.3 0q0-0.1 0.1-0.1c0.1-0.3-0.2-0.5-0.3-0.7-0.3-0.3-0.7 0.2-0.9-0.1z">
                    </path>
                    <path class="s0"
                      d="m43.6 37.4c0.1 0 0.1 0.1 0.1 0.2 0.4 0 0.9-0.1 1.3-0.2 0.3 0 0.3-0.3 0.6-0.3 0.6 0 0.9-0.5 1.5-0.6 0.4-0.1 1-0.2 1.4 0.1q0.1 0.1 0.3 0.1c0.2-0.1 0.4-0.1 0.5 0.1q0 0.1-0.1 0.1 0.1 0.1 0.1 0.1c0.1 0 0.1 0.1 0.1 0.2 0.1 0.1 0.2 0.1 0.2 0 0.1-0.1 0.2-0.1 0.2-0.2 0-0.2 0-0.6-0.3-0.7-0.1-0.1-0.7 0.1-0.7-0.1 0.4 0.1 1.2-0.4 0.6-0.8-0.8-0.2-1.8 0.2-2.6 0.3-0.4 0.1-0.2-0.4-1-0.3 0.5 1 1.6 0.3 2.4 0.3 0 0.1-0.2 0.1-0.1 0.2 0.2-0.1 0.6 0 0.8-0.2 0-0.3 0.6-0.2 0.5 0.1-0.5 0.3-1.2 0.2-1.7 0.2-0.7 0.1-1.4 0.1-2 0.3-0.1 0.4-0.3 0.8-0.8 0.9-0.3-0.3-0.7 0.1-1-0.2-0.2 0-0.2 0.1-0.2 0.1-0.2 0.1-0.2 0.2-0.1 0.3z">
                    </path>
                    <path class="s0"
                      d="m48.5 40.1c-0.9-0.1-0.7 0.5-1.2 0.3 0.1-0.1 0.3-0.1 0.2-0.3-0.6 0.3-1.3 0.5-1.9 0.8-0.3 0.3-0.2 1-0.9 1.1 0 0.3-0.5 0.6-0.9 0.4-0.1 0.1 0 0.2 0 0.3-0.1 0.1-0.3 0.3 0 0.3 0 0 0.1-0.1 0.2-0.1q0 0.1 0 0.1c0 0 0.1 0 0.1 0 0.1-0.1 0.3 0 0.4-0.1 0.3-0.2 0.9-0.5 0.8-1 0.7-0.3 1.1-1.3 1.9-1 0.5 0.3 0.6-0.4 1-0.4 0.1 0.2 0.1 0.2 0.3 0.1 0.2 0.2 0.1-0.1 0.2-0.2 0.1-0.2-0.1-0.3-0.2-0.3z">
                    </path>
                    <path class="s0"
                      d="m44.6 35.9c-0.2 0.4 0 0.9 0.3 1.2 0.5-0.2 0.7-0.8 0.6-1.2 0.1-0.1 0.2-0.1 0.2-0.3-0.1-0.1-0.3 0-0.4-0.2-0.2-0.2-0.4-0.1-0.5 0.1-0.1 0-0.2 0-0.3 0-0.1 0.2 0.2 0.3 0.1 0.4z">
                    </path>
                    <path class="s0"
                      d="m44.5 41.4c0.4 1 1-0.2 0.8-0.8 0.3-0.2 0.2-0.3-0.1-0.4-0.1-0.2-0.4-0.2-0.6 0 0 0.1-0.1 0-0.2 0-0.2 0.1-0.1 0.3 0.1 0.4-0.1 0.3-0.1 0.5 0 0.8z">
                    </path>
                    <path class="s0"
                      d="m45.6 37.8q-0.1 0-0.3 0c-0.1-0.4-0.4-0.3-0.6 0-0.3-0.2-0.3 0.1-0.1 0.3-0.2 0.4 0 0.9 0.4 1.1 0.4-0.2 0.5-0.7 0.5-1.1 0.1 0 0.2-0.2 0.1-0.3z">
                    </path>
                    <path class="s0"
                      d="m48.7 39.1c-0.8-0.3-2 1.4-2.5 0.9-0.1-0.2-0.5-0.2-0.8-0.1 0.3 0.2 0.5 0.6 0.9 0.5 0.5-0.1 0.9-0.5 1.3-0.7 0 0.1-0.1 0.2-0.2 0.3 0.3-0.1 0.6-0.1 0.8-0.3 0-0.8 1.1-0.3 0 0.2 0.2 0 0.4 0.1 0.5 0 0.3-0.3 0.3-0.6 0-0.8z">
                    </path>
                    <path class="s0"
                      d="m46.9 41c-0.2 0-0.4 0.1-0.6 0.3q0.1 0.1 0.2 0.2c-0.1 0.3-0.4 0.2-0.6 0.3q0 0.1 0 0.2-0.2 0-0.1 0.2 0 0.1 0.1 0.1c0-0.1 0.2-0.2 0.2 0 0.5-0.2 0.9-0.5 1.1-0.9q-0.2-0.2-0.3-0.4z">
                    </path>
                    <path class="s0"
                      d="m46.3 39.3c-0.1 0-0.1 0.1-0.1 0.2 0.1 0.1 0.2 0 0.3 0q0 0.1 0 0.1c0.4 0 1-0.3 1.2-0.7q-0.1-0.2-0.2-0.4c-0.3 0.1-0.5 0.1-0.7 0.3q0.2 0.1 0.3 0.3c-0.2 0-0.3 0.2-0.5 0-0.1 0-0.3 0-0.2 0.1q0 0.1 0 0.1-0.1 0-0.1 0z">
                    </path>
                    <path class="s0"
                      d="m44.5 41.8c-0.1-0.3-0.4-0.5-0.5-0.9 0.2-0.2 0.1-0.4-0.2-0.2q-0.1-0.2-0.2-0.2c-0.1 0.1-0.1 0.2 0 0.3q0 0 0 0 0 0-0.1 0c0 0.2 0.1 0.3 0.2 0.4 0.2 0.3 0.4 1 0.8 0.6z">
                    </path>
                    <path class="s0"
                      d="m44.5 36.9c0-0.4-0.5-0.7-0.3-1.1q0-0.1-0.1-0.2-0.1 0-0.2-0.1c-0.2-0.1-0.2 0.1-0.2 0.3q-0.1 0-0.1 0c0.1 0.4 0.5 1.3 0.9 1.1z">
                    </path>
                    <path class="s0"
                      d="m43.6 38.3c0.2 0.3 0.2 0.7 0.5 0.8 0.2 0 0.4 0.2 0.5 0-0.1-0.3-0.5-0.5-0.5-0.9q0.1-0.1 0-0.2c-0.2 0-0.5-0.3-0.4 0.1-0.1 0-0.2 0.1-0.1 0.2z">
                    </path>
                    <path class="s0"
                      d="m36.7 30c0.1 0 0.2-0.1 0.2 0q0 0.1 0 0.1c0.4 0.2 0.9 0 1.3-0.1 0.2-0.1 0.3-0.2 0.5-0.2 0.4 0 0.7-0.4 1-0.5q0.7-0.1 1.4-0.1c0.6 0.7 0.6 0.1 1.1 0.3q0 0.1 0 0.3 0.1 0 0.1 0c0 0.2 0.2 0.3 0.3 0.1q0-0.1 0-0.1c0.3-0.2-0.1-0.9-0.4-0.7-0.2 0-0.4 0.1-0.5-0.1 0.2-0.1 0.6-0.1 0.8-0.3 0.1-0.2 0.1-0.5-0.2-0.6-0.7-0.2-1.4 0.2-2.1 0.2-1.2 0.4-0.3-0.3-1.3-0.2 0.3 1 1.4 0.3 2.2 0.2-0.1 0.2-0.2 0.2-0.3 0.3 0.3 0 0.7 0.1 0.9-0.1 0.1-0.3 0.7-0.4 0.6 0-0.7 0.7-2.7 0.1-3.5 0.5q-0.2 0.6-0.8 0.8c-0.3-0.2-0.5 0-0.8-0.1-0.1-0.1-0.2-0.2-0.3-0.1q0 0.1 0 0.2c-0.1-0.1-0.3 0.1-0.2 0.2z">
                    </path>
                    <path class="s0"
                      d="m37.9 28.4c-0.3 0.5-0.2 0.8 0.1 1.2 0.5 0 0.7-0.7 0.6-1.1q0.1-0.1 0.2-0.1 0-0.1-0.1-0.2-0.1 0-0.2 0c-0.2-0.2-0.3-0.3-0.6 0q-0.1-0.1-0.2 0 0 0.2 0.1 0.2z">
                    </path>
                    <path class="s0"
                      d="m40.4 29.4c0 0.1 0.1 0.1 0.1 0.2-0.1 0.1-0.3 0.1-0.4 0.1-0.1 0-0.1-0.2-0.3-0.1 0 0 0 0.1-0.1 0.1q-0.1 0-0.1 0.1 0 0.1 0.1 0.1c-0.1 0.6 1.4 0 1.6-0.2-0.1-0.1-0.2-0.2-0.2-0.3-0.1-0.2-0.5 0-0.7 0z">
                    </path>
                    <path class="s0"
                      d="m37.6 29.4c0-0.2 0-0.4-0.2-0.5-0.1-0.2-0.2-0.4 0-0.6-0.1-0.1-0.2 0-0.3-0.2-0.1-0.1-0.2 0.1-0.2 0.2-0.3 0-0.1 0.1-0.1 0.3 0.1 0.3 0.5 0.9 0.8 0.8z">
                    </path>
                    <path class="s0"
                      d="m42.1 31.4c-0.1 0.1-0.3 0.2-0.5 0 0.3-0.1 0.6-0.1 0.8-0.3 0.2-0.2 0.1-0.5-0.1-0.6-0.7-0.2-1.4 0.1-2.1 0.2-1.3 0.3-0.4-0.3-1.4-0.3 0.4 1.1 1.5 0.4 2.2 0.3 0 0.1-0.1 0.2-0.2 0.3 0.3-0.1 0.6 0 0.8-0.2 0.1-0.3 0.8-0.3 0.7 0.1-0.7 0.6-2.7 0-3.6 0.4q-0.2 0.7-0.8 0.8c-0.2-0.1-0.4 0-0.6 0q0 0.1 0 0.2 0.1 0.1 0.1 0.2c0.2 0 0.5-0.1 0.8-0.2 0.1 0 0.2-0.2 0.4-0.2 0.5 0.1 0.7-0.3 1.1-0.4q0.7-0.2 1.4-0.2c0.5 0.8 0.6 0.1 1.1 0.4q0 0.1 0 0.2 0 0 0.1 0.1c-0.1 0.1 0.2 0.2 0.3 0q-0.1 0 0-0.1c0.3-0.1-0.2-0.9-0.5-0.7z">
                    </path>
                    <path class="s0"
                      d="m37.8 30.8c-0.3 0.4-0.2 0.8 0.1 1.2 0.5 0 0.7-0.7 0.7-1.2q0 0 0.1-0.1 0-0.1 0-0.1-0.2 0-0.3 0c-0.2-0.3-0.3-0.3-0.5-0.1q-0.2 0-0.3 0.1 0.1 0.1 0.2 0.2z">
                    </path>
                    <path class="s0"
                      d="m40.4 31.7c-0.1 0.2 0.1 0.2 0.1 0.3-0.2 0.1-0.3 0.1-0.5 0.1 0-0.1-0.1-0.2-0.2-0.2-0.1 0.1-0.1 0.1-0.1 0.2q-0.2 0-0.2 0.1 0.1 0.1 0.2 0.1c-0.2 0.5 1.3 0 1.6-0.2-0.1-0.1-0.2-0.2-0.2-0.3-0.1-0.3-0.5-0.1-0.7-0.1z">
                    </path>
                    <path class="s0"
                      d="m37.6 31.8c0-0.2-0.1-0.4-0.2-0.6-0.2-0.1-0.3-0.4-0.1-0.6-0.1 0-0.2 0-0.3-0.1-0.1-0.1-0.1 0-0.2 0.2-0.3 0-0.1 0.1 0 0.3 0.1 0.3 0.4 0.9 0.8 0.8z">
                    </path>
                    <path class="s0"
                      d="m42.2 33.7c-0.2 0-0.4 0.1-0.5-0.1 0.2-0.1 0.6-0.1 0.8-0.3 0.1-0.2 0.1-0.5-0.2-0.6-0.6-0.2-1.4 0.1-2.1 0.2-1.2 0.4-0.3-0.3-1.3-0.3 0.3 1.1 1.4 0.4 2.2 0.3-0.1 0.2-0.2 0.2-0.2 0.3 0.2 0 0.6 0.1 0.8-0.1 0.1-0.3 0.8-0.4 0.6 0-0.6 0.6-2.7 0.1-3.5 0.5q-0.2 0.6-0.8 0.8c-0.3-0.2-0.5 0-0.8-0.1q0-0.1-0.1-0.1 0 0 0 0 0 0-0.1 0 0 0 0 0 0 0.3-0.1 0.5c0.4 0.2 0.9 0 1.3-0.1 0.2-0.1 0.3-0.2 0.5-0.2 0.4 0 0.6-0.4 1-0.5q0.7-0.1 1.4-0.1c0.6 0.7 0.7 0.1 1.1 0.3q0 0.1 0 0.3 0.1 0 0.1 0c0 0.2 0.3 0.3 0.3 0.1q0-0.1 0-0.1c0.3-0.2-0.1-0.9-0.4-0.7z">
                    </path>
                    <path class="s0"
                      d="m37.8 33c-0.2 0.5-0.1 0.8 0.2 1.2 0.5 0 0.7-0.7 0.6-1.1q0.1-0.1 0.2-0.1-0.1-0.1-0.1-0.2-0.1 0-0.2 0c-0.2-0.3-0.3-0.3-0.6 0q-0.1-0.1-0.2 0 0 0.2 0.1 0.2z">
                    </path>
                    <path class="s0"
                      d="m40.4 34c0 0.1 0.1 0.1 0.1 0.2-0.1 0.1-0.3 0.1-0.4 0.1-0.1 0-0.1-0.2-0.3-0.1 0 0 0 0.1-0.1 0.1q-0.1 0-0.1 0.1 0 0.1 0.1 0.1c-0.1 0.6 1.4 0 1.6-0.2-0.1-0.1-0.2-0.2-0.2-0.3-0.1-0.3-0.5-0.1-0.7-0.1z">
                    </path>
                    <path class="s0"
                      d="m37.4 33.5q0-0.1-0.1-0.1c0 0.1 0.1 0.2 0.1 0.3-0.1 0.1-0.1 0.2-0.1 0.2 0.1 0.2 0.2 0.2 0.3 0.1 0-0.2 0-0.4-0.2-0.5z">
                    </path>
                    <path class="s0"
                      d="m45.2 29.6c0.1 0.1 0.2 0.5 0.2 0.5 0.2 0.2 0.4 0.6 0.7 0.5 0.1 0 0.2-0.2 0.2-0.3q0 0-0.1-0.1-0.4-0.3-0.4-0.6c-0.1-0.1 0.1-0.1 0.1-0.2 0-0.2-0.2 0-0.3 0 0-0.1-0.2-0.3-0.3-0.2 0 0 0.1 0.2 0 0.2q0 0-0.1 0c-0.2 0-0.2 0.2 0 0.2z">
                    </path>
                    <path class="s0"
                      d="m46.2 31.2c0.1-0.1 0.3-0.3 0.3-0.3 0.1-0.1 0.1-0.1 0.2-0.1 0.4 0 0.6-0.2 0.7-0.6 0.1-0.1 0-0.4-0.1-0.5q0 0 0-0.1c0.1 0 0.2 0 0.3-0.1-0.1-0.1-0.2 0-0.3-0.1-0.1 0-0.4-0.1-0.5-0.1-0.1 0.1-0.6 0.1-0.5 0.3 0.1 0 0.1 0.2 0.1 0.2h0.2v0.1c0 0-0.1 0.1-0.2 0.1-0.1 0.2 0.3 0.2 0.4 0 0.1-0.1 0.2-0.1 0.2 0-0.1 0.1-0.3 0.2-0.4 0.3-0.2 0-0.2 0.3-0.3 0.5-0.4 0-0.6 0-1-0.3-0.1-0.1-0.2 0-0.1 0.1-0.1 0-0.4-0.2-0.3 0.2h0.1c-0.2 0.3 0 0.2 0.2 0.2 0.3 0.2 0.6 0.3 1 0.2z">
                    </path>
                    <path class="s0"
                      d="m47.5 31l0.2 0.3c0 0 0.3 0.2 0.4 0.2 0.2 0.2 0.1 0.6-0.1 0.5-0.3-0.1-0.4-0.5-0.6-0.8-0.1 0-0.2-0.4-0.3-0.3-1.2 0.2 0.2 0.5 0 1-0.1 0.1-0.2 0.4-0.1 0.4 0.1 0.1 0.3 0.2 0.4 0.4 0.2 0.2 0 0.4-0.2 0.2-0.2-0.1-0.3 0.1-0.2 0.2 0 0-0.1 0.1-0.1 0.1-0.1 0.2 0.1 0.2 0.2 0.1 0.1-0.1 0 0.1 0.2 0.1 0.2 0 0.5-0.1 0.6-0.5 0.1-0.3-0.2-0.3-0.3-0.5-0.1-0.1-0.1-0.6 0.1-0.4 0.2 0.2 0.4 0.3 0.6 0.1 0.2-0.1 0-0.6-0.1-0.7-0.2-0.4-0.4-0.8-0.4-1.2 0.3-0.3 0.6 0.2 0.8-0.6-0.6 0.1-1.2 0.5-0.9 1.1 0.2 0.4 0.1 0.3-0.2 0.3z">
                    </path>
                    <path class="s0"
                      d="m46.6 31.6c-0.3 0-0.6 0-0.5 0.4 0 0.1 0.1 0.3 0.1 0.4q0 0 0 0.1c-0.1 0-0.6-0.2-0.5-0.3 0-0.1-0.2-0.2-0.2-0.1q0 0.1-0.1 0c-0.1-0.1-0.2 0-0.2 0.1q0.1 0.1 0 0.1c-0.1 0.1-0.1 0.2 0.1 0.3 0.3 0.1 0.7 0.3 1.1 0.3 0.5-0.1 0.3-0.2 0.2-0.5 0-0.4 0.6-0.6 0-0.8z">
                    </path>
                    <path class="s0"
                      d="m47 36.9c0-0.1-0.1 0-0.1 0 0 0.2-0.2 0.1-0.2 0.2q0 0.1 0.1 0.1c0.1 0 0.1 0.1 0.2 0.2 0.4-0.2 0.9-0.2 1.2-0.5-0.1-0.1-0.1-0.3-0.1-0.4-0.3 0-0.5 0-0.7 0.1 0 0.1 0 0.1 0.1 0.2-0.2 0.1-0.3 0.1-0.5 0.1z">
                    </path>
                    <path class="s0" d=""></path>
                    <path class="s0" d=""></path>
                    <path fill-rule="evenodd" class="s0"
                      d="m53.5 32.3c1 3.9-0.1 8.3-3.2 10.9-0.7 0.7-1.5 1.3-2.4 1.8q-0.2 0.1-0.2 0.2c-0.2 0.6-0.8 0.8-1.2 1-0.3 0.1-0.6 0.5-0.9 0.4-0.2-0.2-0.6-0.2-0.6 0.1-0.1 0.2 0 0.3 0.1 0.4 0.1 0.2-0.1 0.5-0.4 0.6l-0.4 0.1 0.1 0.8-0.3 0.2v-1.1c0 0-1.6-0.5-2.3-0.8v1.8c-0.2-0.1-0.3-0.2-0.3-0.2v-1.6c0 0-2.9-1.4-3.8-2.5 0.1 0 0.1 0 0.1 0 2.1 1.3 4.4 2.7 6.9 3 0-0.1 0-0.2-0.1-0.3-0.4-0.7 0.6-1.4 1.2-1 0.4 0.1 1.2-0.4 1.5-0.7 0-0.1 0 0 0-0.1-2.4 1.3-6-1.6-8-2.8 1.4 0 2.3 1.6 3.8 1.7 0 0 0-9 0-9h-6.8c0 1.5 0.3 4.7 1.7 5.8l0.2 0.3q0 0 0 0 0 0 0 0c-0.2 0.1-0.4 0.3-0.6 0.1-1.9-1.9-2.9-4.6-2.5-7.3 0.2 0.1 0.3 0.2 0.3 0.2-0.2 1.9 0.2 4.5 1.7 5.9-0.7-0.8-1.2-5.3-1-5.8h0.2q0 0 0 0.6h0.2c0 0 0-0.2 0-0.1 0-0.1 0 0.1 0 0.1h6.6v-7.2h-6.8v3.4h-0.2v-3.6h14.2v4.3c-0.1 0.1-0.1 0.1-0.2 0.2 0-0.1 0-0.3 0-0.3v-4h-6.8v7.1h6.9c0-0.5 0-0.6 0-1 0.1 0.1 0.2 0.2 0.2 0.2-0.1 0.2 0.2 3.5-0.2 4.5q0.5-1.3 0.8-2.8c0.1 0 0.1 0.1 0.2 0.1-1 7-5.5 5.5-6.4 9.2 1.4 0.8 3-0.4 4.2-1.2 4.2-2.9 5.9-8.8 3.4-13.4 0.6-0.4 0.9 1.5 1.1 1.8zm-15.5 8.8c0 0.1 0.1 0.2 0.2 0.2q-0.1-0.1-0.2-0.2zm5.3 2.9c4.4-1.8 7.5-3.6 6.9-8.9h-6.9zm0.1 0.6q0.5 0.2 1 0.4 0.2-0.6 0.5-1.1c-0.6 0.1-1 0.3-1.5 0.7z">
                    </path>
                    <g>
                      <path class="s0" d="m28 47.4q-0.2-0.1-0.5 0c0 0.3 0.1 1 0.2 1.3 0.7-0.1 0.9-0.9 0.3-1.3z"></path>
                      <path fill-rule="evenodd" class="s0"
                        d="m36.9 45.1q0 0 0 0 0 0 0 0zm0 0c0.2 0 2.9 2.3 1.6 3.2-0.3 0.3-0.7 0.5-0.8 0.5q0 0 0 0c0 0 0.8-0.7 0.6-0.9-0.1-0.2-0.4-0.2-0.8-0.2-1.1 0-3.1 0.4-3.5 0.5-2.3 0.4-4.7 1-7.1 1.3q-0.1 0-0.2 0c-1.8 0-1.7-1.9-2.9-2.9q0.7 0.1 1.4 0.1c3.9 0 7.8-1.6 11.7-1.6zm-9.9 2.1c0 0.2 0.4 1.6 0.3 1.8 0.5-0.1 1.2-0.2 1.4-0.7 0.3-1.1-0.9-1.4-1.7-1.1zm2.7 1.3c-0.3-0.5-0.4-1.3-0.4-1.8l-0.5 0.1c0.2 0.5 0.4 1.3 0.4 1.8zm1.4-0.3zm0 0l0.1-0.4q-0.3 0.2-0.8 0.3l-0.1-0.5c0.2 0 0.5-0.1 0.7-0.1l-0.1-0.3-0.6 0.2-0.2-0.6q0.3 0 0.6 0v-0.3l-1 0.2c0.1 0.1 0.4 1.6 0.4 1.7zm1-0.1c1.1 0 0.8-1.2 0.7-1.9l-0.4 0.1c0.1 0.4 0.5 1.3 0 1.5-0.8 0.2-0.8-0.9-0.9-1.4l-0.4 0.1c0.2 0.5 0.3 1.6 1 1.6zm3-0.6v-0.3q-0.2 0.2-0.7 0.3l-0.1-0.6c0.1 0 0.5-0.1 0.6-0.1l-0.1-0.2-0.6 0.1-0.1-0.5q0.3-0.1 0.5 0l0.1-0.4-1.1 0.3c0.1 0.1 0.5 1.5 0.5 1.7l1-0.3zm1-1.7c0 0 0.5-0.1 0.6 0l-0.1-0.3-1.4 0.2v0.3c0.3-0.1 0.4-0.1 0.6-0.2l0.3 1.5h0.3l-0.3-1.5z">
                      </path>
                    </g>
                    <g>
                      <path class="s0" d="m55 46.7c-0.1 0.3-0.2 0.9-0.3 1.3 0.8 0.1 1-1.1 0.3-1.3z"></path>
                      <path class="s0" d="m58 47.2c-0.6-0.1-0.8 1.1-0.3 1.3 0.6 0.1 0.8-1.1 0.3-1.3z"></path>
                      <path class="s0" d="m56.5 47l-0.2 0.6c0.5 0.1 0.7-0.5 0.2-0.6z"></path>
                      <path class="s0" d="m51.8 46.1c-0.7-0.2-0.9 1.1-0.4 1.3 0.6 0.1 0.9-1.1 0.4-1.3z"></path>
                      <path fill-rule="evenodd" class="s0"
                        d="m60.5 46.7c0.7 0 1.4 0 1.6 0-1.2 0.9-1.1 2.9-2.9 2.9q-0.1 0-0.2-0.1c-2.4-0.2-4.8-0.9-7.2-1.3-0.3 0-2.3-0.5-3.5-0.5-0.8 0-1.1 0.3-0.1 1.1-0.3 0-1.5-0.7-1.2-1.4 0.9-1.9 1.7-2.3 2.8-2.3 0.5 0 1.1 0.1 1.8 0.2 2.6 0.4 5.1 1.1 7.7 1.4 0.2 0 0.7 0 1.2 0zm-9.7-1q0 0 0 0zm0 0l-0.4-0.1c-0.1 0.1-0.6 0.9-0.6 0.9 0 0-0.3-1-0.3-1.1h-0.4c0 0-0.3 1.5-0.4 1.7h0.4c0-0.3 0.2-1.1 0.2-1.1l0.4 1.2 0.6-1.1c0 0-0.1 1-0.1 1.2h0.4c0-0.1 0.2-1.5 0.2-1.6zm0.1 0.8c-0.4 1 1 1.7 1.4 0.5 0.4-1.1-1-1.7-1.4-0.5zm3.1-0.1l-0.3-0.1c0 0.1-0.2 1-0.2 1 0 0-0.5-1.1-0.5-1.1l-0.3-0.1-0.3 1.6 0.2 0.1c0.1-0.1 0.2-1.1 0.2-1.1 0 0 0.7 1.3 0.8 1.3zm0.7 0.1l-0.3 1.6c0.2 0.1 0.6 0.2 0.8 0.1 1.1-0.4 0.6-1.8-0.5-1.7zm2.4 0.9c0.2-0.5-0.5-0.6-0.9-0.6 0 0.1-0.4 1.5-0.4 1.6l0.4 0.1c0-0.2 0-0.5 0.1-0.7 0.1 0.3 0.4 0.7 0.5 0.8h0.2c-0.1-0.3-0.2-0.5-0.3-0.8q0.4-0.1 0.4-0.4zm0.7-0.4c-0.8 0.3-0.8 1.9 0.2 1.8 0.8-0.3 0.8-2-0.2-1.8zm1.4 0.3h-0.4c0 0.4-0.1 1.2-0.3 1.6l0.4 0.1c-0.1-0.3 0.1-0.9 0.1-1.2q0.1-0.3 0.2-0.5zm0.7 0.4c0.2 0 0.5 0.1 0.6 0.2l-0.1-0.3-1.1-0.2-0.1 0.3q0.2-0.1 0.4-0.1c0 0.3-0.3 1.4-0.3 1.4l0.4 0.1c0-0.1 0.2-1.4 0.2-1.4z">
                      </path>
                    </g>
                  </g>
                </g>
                <g id="Name">
                  <g>
                    <path class="s0" d="m20.5 62.1h2.7v9h11.1v-9h2.8v20.9h-2.8v-9.5h-11.1v9.5h-2.7z"></path>
                    <path class="s0"
                      d="m40.8 62.1h3.9l6.6 17.6 6.6-17.6h3.8v20.9h-2.6v-17.3h-0.1l-6.5 17.3h-2.4l-6.6-17.3v17.3h-2.7z">
                    </path>
                    <path fill-rule="evenodd" class="s0"
                      d="m73.9 62.1h9.2c4.2 0 6.4 2.3 6.4 6.2 0 3.9-2.2 6.2-6.4 6.2h-6.4v8.5h-2.8zm2.8 10h5.4c3.2 0.1 4.6-1.3 4.6-3.8 0-2.5-1.4-3.8-4.6-3.8h-5.4z">
                    </path>
                    <path class="s0"
                      d="m91.4 67.9h2.3v3.2h0.1c1.2-2.5 2.9-3.6 5.6-3.5v2.6c-4.1 0-5.5 2.2-5.5 6.1v6.7h-2.5c0 0 0-15.1 0-15.1z">
                    </path>
                    <path class="s0" d="m103.3 62.1v3.1h-2.5v-3.1zm0 5.8v15.1h-2.5v-15.1z"></path>
                    <path class="s0"
                      d="m108 78.3c0.1 2.2 2 2.9 4 2.9 1.6 0 3.7-0.3 3.7-2.2 0-3.9-9.9-1.3-9.9-7.1 0-3.1 3-4.3 5.7-4.3 3.4 0 5.9 1 6.2 4.7h-2.5c-0.2-1.9-1.9-2.5-3.5-2.5-1.5 0-3.3 0.4-3.3 1.9 0 1.7 2.7 2.1 5 2.6 2.5 0.6 5 1.4 5 4.3 0 3.7-3.4 4.8-6.5 4.8-3.4 0-6.3-1.4-6.4-5.1h2.5z">
                    </path>
                    <path fill-rule="evenodd" class="s0"
                      d="m127 67.6c4.8 0 7.4 3.4 7.4 7.9 0 4.4-2.6 7.9-7.4 7.9-4.8 0-7.3-3.5-7.3-7.9 0-4.4 2.5-7.9 7.3-7.9zm0 13.6c2.6 0 4.7-2 4.7-5.7 0-3.7-2.1-5.7-4.7-5.7-2.6 0-4.7 2-4.7 5.7 0 3.7 2.1 5.7 4.7 5.7z">
                    </path>
                    <path class="s0"
                      d="m136.6 67.9h2.4v2.4c1.1-1.9 2.8-2.7 5-2.7 4 0 5.2 2.2 5.2 5.5v9.9h-2.5v-10.2c0-1.9-1.2-3.1-3.1-3.1-3 0-4.5 2.1-4.5 4.8v8.5h-2.5c0 0 0-15.1 0-15.1z">
                    </path>
                    <path fill-rule="evenodd" class="s0"
                      d="m172.1 80.4c-1.3 2-3.7 3-6 3-5.6 0-6.5-4-6.5-5.7 0-3.3 2.2-4.9 4.9-6.3-1.2-1.7-2.3-2.8-2.3-5 0-2.2 1.6-4.3 4.7-4.3 2.6 0 5.1 1.5 5.1 4.3 0 2.5-1.9 4.3-4 5.4l3.8 4.6q0.6-1.5 0.7-3.2h2.4c-0.3 2.5-0.6 3.2-1.4 5.1l4 4.7h-3.2l-2.2-2.6zm-6.2-7.5q0 0 0 0zm-3.7 4.8c0 2.1 2 3.5 4 3.5 1.9 0 3.5-1 4.5-2.5 0 0-4.8-5.8-4.8-5.8-2 1.1-3.7 2.3-3.7 4.8zm7.3-11.1c0-1.2-0.9-2.3-2.4-2.3-1.2 0-2.4 0.7-2.4 2.3 0 1.2 1.1 2.5 2 3.6 1.2-0.8 2.8-1.8 2.8-3.6z">
                    </path>
                    <path fill-rule="evenodd" class="s0"
                      d="m20.5 93.6h9.1c4.2 0 6.5 2.3 6.5 6.2 0 3.9-2.3 6.2-6.5 6.2h-6.4v8.5h-2.7c0 0 0-20.9 0-20.9zm2.8 10h5.4c3.2 0.1 4.6-1.3 4.6-3.8 0-2.5-1.4-3.8-4.6-3.8h-5.4z">
                    </path>
                    <path class="s0"
                      d="m38 99.4h2.3v3.2h0.1c1.2-2.5 2.8-3.6 5.5-3.5v2.6c-4 0-5.4 2.2-5.4 6.1v6.7h-2.5v-15.1z"></path>
                    <path fill-rule="evenodd" class="s0"
                      d="m53.6 99.1c4.8 0 7.3 3.4 7.3 7.9 0 4.4-2.5 7.9-7.3 7.9-4.8 0-7.4-3.5-7.4-7.9 0-4.4 2.6-7.9 7.4-7.9zm0 13.6c2.6 0 4.7-2.1 4.7-5.7 0-3.7-2.1-5.7-4.7-5.7-2.6 0-4.7 2-4.7 5.7 0 3.6 2.1 5.7 4.7 5.7z">
                    </path>
                    <path fill-rule="evenodd" class="s0"
                      d="m63.2 93.6h2.5v7.9h0.1c0.8-1.7 2.7-2.4 4.8-2.4 4.7 0 7 3.6 7 7.9 0 4.3-2.3 7.9-6.9 7.9-1.5 0-3.8-0.6-4.9-2.4h-0.1v2h-2.5zm7.1 7.6c-3.4 0-4.7 2.9-4.7 5.8 0 2.9 1.4 5.7 4.8 5.7 3.4 0 4.6-2.9 4.6-5.9 0-2.9-1.5-5.6-4.7-5.6z">
                    </path>
                    <path fill-rule="evenodd" class="s0"
                      d="m93.2 114.5q-0.7 0.4-1.8 0.4c-1.3 0-2.1-0.7-2.1-2.4-1.4 1.7-3.2 2.4-5.3 2.4-2.8 0-5-1.2-5-4.3 0-3.4 2.5-4.2 5.1-4.6 2.7-0.6 5.1-0.3 5.1-2.2 0-2.2-1.8-2.6-3.4-2.6-2.1 0-3.6 0.7-3.8 2.9h-2.5c0.2-3.7 3.1-5.1 6.5-5.1 2.7 0 5.7 0.7 5.7 4.2v7.8c0 1.2 0 1.7 0.7 1.7q0.4 0 0.8-0.2zm-4-7.7c-2 1.4-7.6 0-7.6 3.7 0 1.7 1.4 2.3 2.9 2.3 3.3 0 4.7-2.1 4.7-3.5z">
                    </path>
                    <path class="s0"
                      d="m98.2 99.4h3v2.2h-3v9.4c0 1.2 0.3 1.3 1.9 1.3h1.1v2.2h-1.9c-2.5 0-3.6-0.5-3.6-3.3v-9.6h-2.6v-2.2h2.6v-4.5h2.5z">
                    </path>
                    <path class="s0" d="m105.7 93.6v3.1h-2.5v-3.1zm0 5.8v15.1h-2.5v-15.1z"></path>
                    <path fill-rule="evenodd" class="s0"
                      d="m115.4 99.1c4.8 0 7.3 3.4 7.3 7.9 0 4.4-2.5 7.9-7.3 7.9-4.8 0-7.4-3.5-7.4-7.9 0-4.4 2.6-7.9 7.4-7.9zm0 13.6c2.6 0 4.7-2.1 4.7-5.7 0-3.7-2.1-5.7-4.7-5.7-2.6 0-4.7 2-4.7 5.7 0 3.6 2.1 5.7 4.7 5.7z">
                    </path>
                    <path class="s0"
                      d="m125 99.4h2.3v2.4h0.1c1-1.9 2.7-2.7 4.9-2.7 4 0 5.2 2.2 5.2 5.5v9.9h-2.5v-10.2c0-1.9-1.1-3.1-3-3.1-3.1 0-4.5 2.1-4.5 4.8v8.5h-2.5z">
                    </path>
                    <path class="s0"
                      d="m161.4 99.8c-0.4-3.1-2.3-4.3-5.2-4.3-2.4 0-4.7 0.8-4.7 3.6 0 5.1 13.4 1.5 13.4 9.7 0 4.4-4.4 6.2-8.2 6.2-4.7 0-8.6-2.3-8.6-7.3h2.6c0 3.5 2.9 5 6.1 5 2.5 0 5.3-0.8 5.3-3.8 0-5.8-13.4-2-13.4-9.7 0-4.2 3.8-6.1 7.6-6.1 4.3 0 7.6 2 7.7 6.6h-2.6z">
                    </path>
                    <path fill-rule="evenodd" class="s0"
                      d="m180.2 109.7c-0.7 3.4-3.1 5.2-6.5 5.2-4.9 0-7.2-3.4-7.3-8 0-4.5 3-7.8 7.1-7.8 5.4 0 7 5 6.9 8.6h-11.4c-0.1 2.7 1.4 5 4.8 5 2 0 3.4-1 3.9-3 0 0 2.4 0 2.5 0zm-2.5-4.2c-0.1-2.4-1.8-4.3-4.3-4.3-2.5 0-4.2 2-4.4 4.3 0 0 8.7 0 8.7 0z">
                    </path>
                    <path class="s0"
                      d="m182.4 99.4h2.3v3.2h0.1c1.2-2.5 2.9-3.6 5.6-3.5v2.6c-4 0-5.5 2.2-5.5 6.1v6.7h-2.5c0 0 0-15.1 0-15.1z">
                    </path>
                    <path class="s0" d="m199.4 114.5h-2.7l-5.6-15.1h2.8l4.2 12.6h0.1l4.1-12.6h2.6l-5.5 15.1z"></path>
                    <path class="s0" d="m209 93.6v3.1h-2.4v-3.1zm0 5.8v15.1h-2.5v-15.1z"></path>
                    <path class="s0"
                      d="m222.5 104.3c-0.4-1.9-1.7-3.1-3.8-3.1-3.6 0-4.7 2.9-4.7 6 0 2.8 1.3 5.5 4.5 5.5 2.4 0 3.8-1.4 4.1-3.7h2.6c-0.6 3.7-2.9 5.9-6.7 5.9-4.6 0-7.1-3.2-7.1-7.7 0-4.6 2.3-8.1 7.1-8.1 3.5 0 6.2 1.6 6.6 5.2h-2.6z">
                    </path>
                    <path fill-rule="evenodd" class="s0"
                      d="m240.3 109.7c-0.7 3.4-3 5.2-6.5 5.2-4.8 0-7.1-3.4-7.3-8 0-4.5 3-7.8 7.2-7.8 5.3 0 7 5 6.8 8.6h-11.3c-0.1 2.7 1.4 5 4.7 5 2.1 0 3.5-1 3.9-3 0 0 2.5 0 2.5 0zm-2.4-4.2c-0.2-2.4-1.9-4.3-4.4-4.3-2.5 0-4.2 2-4.3 4.3 0 0 8.7 0 8.7 0z">
                    </path>
                  </g>
                </g>
              </g>
            </svg>