<svg id="hmrc" width="500" height="302.5" version="1.1" viewBox="0 0 500 302.49585"
              xmlns="http://www.w3.org/2000/svg" xmlns:cc="http://creativecommons.org/ns#"
              xmlns:dc="http://purl.org/dc/elements/1.1/" xmlns:rdf="http://www.w3.org/1999/02/22-rdf-syntax-ns#">
              <metadata>
                <rdf:RDF>
                  <cc:Work rdf:about="">
                    <dc:format>image/svg+xml</dc:format>
                    <dc:type rdf:resource="http://purl.org/dc/dcmitype/StillImage" />
                    <dc:title />
                  </cc:Work>
                </rdf:RDF>
              </metadata>
              <path d="m0 300.12h9.1324v-300.12h-9.1324z" fill="#F3E8D0" stroke-width="4.0354" />
              <g fill="#F3E8D0">
                <g stroke-width="3.5525">
                  <path
                    d="m39.84 152.29h8.0146v25.997h31.729v-25.997h8.0146v60.457h-8.0146v-27.687h-31.729v27.687h-8.0146z" />
                  <path
                    d="m98.7 152.29h10.969l18.983 50.805 19.072-50.805h10.969v60.457h-7.5962v-50.296h-0.16621l-18.817 50.296h-6.8337l-18.817-50.296h-0.16986v50.296h-7.5926z" />
                  <path
                    d="m193.79 152.29h28.349c11.309 0 18.313 6.1816 18.313 15.837 0 7.2777-3.2094 13.292-10.465 15.324v0.17169c7.0039 1.3523 8.4402 6.5162 9.0289 12.445 0.50703 5.9254 0.16986 12.531 3.5427 16.68h-8.9437c-2.2767-2.4556-1.0106-8.9753-2.1916-14.904-0.84402-5.9254-2.2803-10.922-10.043-10.922h-19.576v25.826h-8.0146zm24.721 27.858c7.511 0 13.923-1.9467 13.923-10.755 0-5.9254-3.2058-10.331-10.717-10.331h-19.912v21.086z" />
                </g>
                <g stroke-width="3.5463">
                  <path
                    d="m285.46 198.88c-1.9398 9.6211-8.8586 14.852-18.646 14.852-13.923 0-20.505-9.6175-20.927-22.952 0-13.079 8.6069-22.696 20.505-22.696 15.441 0 20.164 14.43 19.742 24.977h-32.651c-0.25534 7.5926 4.0499 14.341 13.582 14.341 5.9081 0 10.043-2.869 11.309-8.5218zm-6.9188-12.15c-0.33681-6.8337-5.4861-12.316-12.572-12.316-7.511 0-11.983 5.6528-12.486 12.316z" />
                  <path d="m310.03 212.71h-7.6777l-16.199-43.623h8.0146l12.235 36.364h0.16986l11.894-36.364h7.511z" />
                  <path
                    d="m366.06 198.88c-1.9398 9.6211-8.8586 14.852-18.646 14.852-13.923 0-20.505-9.6175-20.927-22.952 0-13.079 8.6069-22.696 20.505-22.696 15.441 0 20.164 14.43 19.742 24.977h-32.651c-0.25534 7.5926 4.0499 14.341 13.582 14.341 5.9081 0 10.043-2.869 11.306-8.5218zm-6.9188-12.15c-0.33681-6.8337-5.4861-12.316-12.572-12.316-7.511 0-11.979 5.6528-12.486 12.316z" />
                  <path
                    d="m372.63 169.09h6.7486v6.9188h0.16986c3.0356-5.401 7.933-7.9295 14.175-7.9295 11.476 0 15.019 6.5819 15.019 15.944v28.689h-7.1706v-29.533c0-5.3123-3.3761-8.7735-8.8586-8.7735-8.692 0-12.912 5.8195-12.912 13.667v24.64h-7.1706z" />
                  <path
                    d="m453.27 212.71h-6.7486v-6.9188h-0.16986c-3.0356 5.401-7.933 7.9295-14.174 7.9295-11.476 0-15.019-6.5819-15.019-15.944v-28.689h7.1706v29.53c0 5.3159 3.3761 8.7771 8.8586 8.7771 8.692 0 12.912-5.823 12.912-13.671v-24.636h7.1706z" />
                  <path
                    d="m499.3 198.88c-1.9398 9.6211-8.8586 14.852-18.646 14.852-13.923 0-20.505-9.6175-20.927-22.952 0-13.079 8.6068-22.696 20.505-22.696 15.441 0 20.164 14.43 19.742 24.977h-32.651c-0.25535 7.5926 4.0499 14.341 13.582 14.341 5.9081 0 10.043-2.869 11.309-8.5218zm-6.9188-12.15c-0.3368-6.8337-5.4826-12.316-12.572-12.316-7.511 0-11.979 5.6528-12.486 12.316z" />
                  <path
                    d="m71.91 293.53c-3.6278 5.6528-10.462 8.5217-17.043 8.5217-16.285 0-18.817-11.557-18.817-16.451 0-9.4509 6.4117-14.178 14.089-18.224-3.3725-4.8123-6.6635-8.0182-6.6635-14.178 0-6.5819 4.8939-12.405 13.582-12.405 7.511 0 14.6 4.135 14.6 12.323 0 7.1706-5.4861 12.316-11.309 15.607l10.887 13.245c1.0959-2.9505 1.7697-6.1563 1.9398-9.3622h6.8337c-0.59215 7.0855-1.5178 9.5324-4.0499 14.848l11.728 13.586h-9.3657zm-17.802-21.6c-5.6563 3.2058-10.465 6.4117-10.465 13.586 0 6.0748 5.6528 10.21 11.476 10.21 5.4861 0 9.8729-2.7838 12.827-7.1741zm10.376-18.395c0-3.4576-2.6136-6.4117-6.9188-6.4117-3.3761 0-6.9188 2.0249-6.9188 6.4117 0 3.6278 3.2058 7.1706 5.823 10.465 3.4576-2.1952 8.0146-5.401 8.0146-10.465" />
                  <path
                    d="m157.12 258.96c-1.688-8.5182-8.5217-12.823-16.877-12.823-14.341 0-20.416 11.813-20.416 24.384 0 13.752 6.0748 25.228 20.501 25.228 10.547 0 16.621-7.4259 17.38-17.384h8.0182c-1.5213 15.019-10.887 24.136-26.072 24.136-18.731 0-27.845-13.841-27.845-31.388 0-17.465 9.958-31.729 28.519-31.729 12.572 0 22.952 6.7521 24.806 19.576z" />
                  <path
                    d="m208.25 301.05h-6.7486v-6.9188h-0.16986c-3.0356 5.401-7.933 7.9295-14.175 7.9295-11.476 0-15.019-6.5819-15.019-15.944v-28.689h7.1706v29.53c0 5.3159 3.3761 8.7771 8.8586 8.7771 8.692 0 12.912-5.823 12.912-13.671v-24.636h7.1706z" />
                  <path
                    d="m221.7 287.29c0.25169 6.4117 5.8195 8.4366 11.728 8.4366 4.4719 0 10.547-1.0108 10.547-6.4968 0-5.5677-7.0855-6.4968-14.26-8.0997-7.0855-1.6029-14.26-3.9683-14.26-12.32 0-8.7735 8.692-12.401 16.285-12.401 9.6211 0 17.299 3.0356 17.887 13.667h-7.1706c-0.50704-5.5677-5.401-7.3408-10.125-7.3408-4.3052 0-9.2806 1.1845-9.2806 5.5677 0 5.1457 7.5926 5.9932 14.26 7.5926 7.1706 1.6064 14.256 3.9683 14.256 12.405 0 10.38-9.7026 13.756-18.561 13.756-9.7878 0-18.054-3.9683-18.476-14.767z" />
                  <path
                    d="m267.58 257.43h8.692v6.3301h-8.692v27.083c0 3.291 0.92913 3.8796 5.401 3.8796h3.291v6.3301h-5.4861c-7.4224 0-10.376-1.5178-10.376-9.536v-27.757h-7.4259v-6.3301h7.4259v-13.079h7.1706z" />
                  <path
                    d="m299.43 256.4c13.838 0 21.178 10.04 21.178 22.866 0 12.738-7.3408 22.781-21.178 22.781-13.838 0-21.178-10.043-21.178-22.781 0-12.827 7.3408-22.866 21.178-22.866m0 39.318c7.5075 0 13.586-5.9046 13.586-16.451 0-10.632-6.0783-16.536-13.586-16.536-7.511 0-13.586 5.9046-13.586 16.536 0 10.547 6.0748 16.451 13.586 16.451" />
                  <path
                    d="m327.09 257.43h6.7486v6.4117h0.16986c3.2058-4.8939 8.0997-7.4224 14.089-7.4224 5.3159 0 10.21 2.11 11.983 7.4224 2.954-4.6421 8.0997-7.4224 13.667-7.4224 8.692 0 14.515 3.6278 14.515 12.653v31.98h-7.1742v-28.604c0-5.401-1.4327-9.7026-8.4366-9.7026-6.9188 0-11.391 4.3903-11.391 11.139v27.168h-7.1706v-28.604c0-5.6528-1.7732-9.7026-8.1848-9.7026-8.5217 0-11.646 7.8479-11.646 11.139v27.168h-7.1706z" />
                  <path
                    d="m401.63 287.29c0.25169 6.4117 5.8195 8.4366 11.728 8.4366 4.4719 0 10.547-1.0108 10.547-6.4968 0-5.5677-7.0855-6.4968-14.26-8.0997-7.0855-1.6029-14.26-3.9683-14.26-12.32 0-8.7735 8.692-12.401 16.285-12.401 9.6211 0 17.299 3.0356 17.887 13.667h-7.1706c-0.50703-5.5677-5.401-7.3408-10.125-7.3408-4.3052 0-9.2806 1.1845-9.2806 5.5677 0 5.1457 7.5926 5.9932 14.26 7.5926 7.1706 1.6064 14.256 3.9683 14.256 12.405 0 10.38-9.7026 13.756-18.561 13.756-9.7878 0-18.054-3.9683-18.476-14.767z" />
                </g>
                <g stroke-width="3.5628">
                  <path
                    d="m133.3 66.148c-0.91928-0.12055-2.1876-0.28146-3.0106-0.39197 0.84439-1.8277 1.3538-2.8823 1.3538-2.8823 0.0493-0.34922 0.99763-1.9952 1.3788-3.3562 0.34557-1.108 0.54156-3.1495 0.54156-3.488 0-3.5236-1.2327-6.7158-3.2992-9.0317-2.07-2.3122-4.9523-3.7445-8.2407-3.7445-0.66977 0-1.468 0.0347-3.2992 0.39197-1.874 0.46319-2.7647 0.72329-4.4214 1.1615-2.8004 0.86576-3.944 1.3076-7.9522 3.235-0.40256 0.19232-0.56639 0.54867-0.6484 0.81589-0.0785 0.27434-0.0639 0.48091-0.0639 0.48091l-0.16438 14.903h-2.5011v-16.278s-0.0143-0.46667 0.16438-1.019c0.17535-0.55215 0.58777-1.0831 1.2791-1.5426 0.54156-0.3527 1.0902-0.66978 1.6318-0.96914-0.59854-0.40256-1.0048-1.0794-1.0048-1.8598 0-1.2435 1.0048-2.241 2.2374-2.241 1.2364 0 2.2446 0.99763 2.2446 2.241 0 0.11324-0.0292 0.22795-0.0365 0.33498 0.042-0.0178 0.0895-0.0365 0.13882-0.0493 0.49516-0.17169 1.0404-0.33845 1.5748-0.49882-0.68402-0.38119-1.1472-1.108-1.1472-1.9382 0-1.2435 1.0082-2.241 2.2374-2.241 1.2364 0 2.241 0.99763 2.241 2.241 0 0.37772-0.11324 0.73388-0.27434 1.0475 1.0866-0.29918 1.8526-0.50228 1.8526-0.50228 0.10411-0.0256 0.20657-0.0457 0.3242-0.0712-0.60567-0.40621-1.0011-1.0831-1.0011-1.8598 0-1.2364 1.0011-2.2374 2.2303-2.2374 1.2469 0 2.2374 1.0011 2.2374 2.2374 0 0.4347-0.12055 0.83361-0.33133 1.1757 0.0107-7e-3 0.0329-7e-3 0.042-0.0143 0.77663-0.13151 1.6532-0.15708 2.4441-0.15708-0.26721-0.37059-0.42758-0.81589-0.42758-1.3005 0-1.2469 1.0082-2.241 2.2339-2.241 1.2398 0 2.2303 0.99398 2.2303 2.241 0 0.68055-0.30996 1.2862-0.79799 1.6994 0.83726 0.20657 1.646 0.48091 2.4191 0.84438-0.0676-0.21369-0.10959-0.42392-0.10959-0.6484 0-1.2398 1.0048-2.241 2.241-2.241 1.2292 0 2.2339 1.0011 2.2339 2.241 0 1.0902-0.77663 1.9845-1.8064 2.1876 0.68402 0.51653 1.3218 1.0902 1.9025 1.7136v-0.0712c0-1.2364 1.0082-2.2374 2.2339-2.2374 1.2364 0 2.2339 1.0011 2.2339 2.2374 0 1.2327-0.99763 2.2339-2.2339 2.2339-0.22447 0-0.4168-0.0384-0.61644-0.10046 0.41681 0.64493 0.798 1.3218 1.1222 2.0237 0.40968-0.58795 1.076-0.97261 1.8527-0.97261 1.2292 0 2.2339 0.99398 2.2339 2.2374 0 1.2327-1.0048 2.2339-2.2339 2.2339-0.25644 0-0.48457-0.053-0.71251-0.12785 0.1315 0.61644 0.23872 1.2398 0.30995 1.8812 0.26356-0.10776 0.55215-0.17169 0.85516-0.17169 1.2398 0 2.2339 0.99398 2.2339 2.2374 0 1.2327-0.99397 2.2339-2.2339 2.2339-0.34557 0-0.66977-0.0858-0.95835-0.22794-0.0365 0.23872-0.0749 0.49169-0.10411 0.741-0.0712 0.25644-0.12786 0.48804-0.18886 0.70192 1.1008 0.14247 1.9453 1.0652 1.9453 2.2161 0 1.2292-0.99763 2.2303-2.2339 2.2303-0.46667 0-0.89078-0.13516-1.2506-0.38484-0.30283 0.71617-0.69826 1.6389-1.133 2.697" />
                  <path
                    d="m100.2 64.408c-1.19 0-2.1412-0.95836-2.1412-2.1412 0-1.19 0.95124-2.1484 2.1412-2.1484h0.0218c1.1936 0 2.1412 0.95836 2.1412 2.1484 0 1.1828-0.94777 2.1412-2.1412 2.1412z" />
                  <path
                    d="m100.23 59.198c1.1364 0 2.045-0.91561 2.045-2.0486 0-1.1258-0.9085-2.045-2.045-2.045h-0.0213c-1.1364 0-2.045 0.91927-2.045 2.045 0 1.133 0.9085 2.0486 2.045 2.0486z" />
                  <path
                    d="m100.21 54.178c-1.0902-7e-3 -1.9488-0.87654-1.9488-1.9524 0-1.0831 0.85863-1.9524 1.9488-1.956h0.0143c1.0831 4e-3 1.9453 0.87288 1.9453 1.956 0 1.076-0.86228 1.9453-1.9453 1.9524z" />
                  <path
                    d="m100.22 45.018c1.0153-4e-3 1.8384-0.82301 1.8384-1.8384 0-1.019-0.82302-1.8384-1.8384-1.842h-0.0143c-1.0153 4e-3 -1.8348 0.82301-1.8348 1.842 0 1.0153 0.81936 1.8348 1.8348 1.8384z" />
                  <path
                    d="m100.21 49.478c-1.0261-4e-3 -1.8526-0.83727-1.8526-1.8598 0-1.0225 0.82648-1.8598 1.8526-1.8633h0.0143c1.0225 4e-3 1.8527 0.84073 1.8527 1.8633 0 1.0225-0.83014 1.8562-1.8527 1.8598z" />
                  <path
                    d="m106.69 19.941c-0.0365-0.14247-0.1852-0.30648-0.41333-0.30648-0.26722 0-0.39544 0.18521-0.43818 0.30996-0.42046 1.6424-1.2648 3.1887-4.4855 3.463 0.14246-1.4073 0.51306-2.469 1.1472-3.2243 0.60201-0.65206 1.4358-1.0866 2.6507-1.3467 0.0493-0.0036 0.18521-0.03288 0.26722-0.1169 0.0457-0.05662 0.10411-0.15708 0.0932-0.29936 0-0.15342-0.0712-0.24219-0.1242-0.29571-0.0968-0.07854-0.21023-0.0968-0.26722-0.09315h-9.7941c-0.0566-0.0036-0.17169 0.01425-0.26722 0.09315-0.053 0.05297-0.1242 0.14247-0.1242 0.29571-0.0107 0.14247 0.0457 0.24238 0.0932 0.29936 0.0822 0.08584 0.22082 0.11324 0.26722 0.1169 1.215 0.26009 2.0522 0.6948 2.6507 1.3467 0.63416 0.75525 1.0048 1.817 1.1472 3.2243-3.2208-0.27434-4.0652-1.8206-4.4856-3.463-0.042-0.1242-0.17169-0.30996-0.43818-0.30996-0.22794 0-0.37771 0.16438-0.41333 0.30648l-0.0107 0.02922v8.9633c0 0.16438 0.13881 0.39196 0.45954 0.38118 0.3242 0 0.40256-0.18082 0.44183-0.26374l0.0107-0.042c0.76238-1.8669 2.3728-3.0747 4.4535-3.3847-0.1242 1.4714-0.50593 2.5723-1.1757 3.3526-0.60566 0.65552-1.4038 1.0723-2.64 1.3361l-0.0365 7e-3c-0.0749 0.0178-0.16439 0.0493-0.2316 0.11689-0.0457 0.053-0.10411 0.15343-0.0932 0.31343 0 0.13881 0.0712 0.2316 0.1242 0.28146 0.0968 0.0749 0.19945 0.0895 0.29224 0.10046h9.7442c0.0932-0.0107 0.19599-0.0256 0.29224-0.10046 0.053-0.0493 0.1242-0.14247 0.1242-0.28146 0.0107-0.16073-0.0457-0.2601-0.0932-0.31343-0.0676-0.0676-0.15708-0.10046-0.2316-0.11689l-0.0365-7e-3c-1.2364-0.26356-2.0379-0.68055-2.64-1.3361-0.66978-0.78028-1.051-1.8812-1.1757-3.3526 2.0807 0.30996 3.6911 1.5178 4.4535 3.3847l0.0107 0.042c0.0384 0.0822 0.1169 0.26374 0.43818 0.26374 0.3242 0.0107 0.4632-0.21735 0.4632-0.38118v-8.964z" />
                  <path
                    d="m100.23 41.028c2.6151 0 4.7421-2.1234 4.7421-4.7421s-2.127-4.7421-4.7421-4.7421h-0.0143c-2.6151 0-4.7456 2.1234-4.7456 4.7421 0 2.6186 2.1306 4.7421 4.7456 4.7421z" />
                  <path
                    d="m66 63.438c-0.35982 0.24585-0.78374 0.38484-1.2506 0.38484-1.2398 0-2.2339-1.0011-2.2339-2.2303 0-1.1509 0.84091-2.0771 1.9453-2.2161-0.0603-0.2137-0.11689-0.44895-0.18886-0.70192-0.0292-0.25297-0.0676-0.50229-0.10411-0.74101-0.28858 0.13881-0.61279 0.22795-0.95836 0.22795-1.2398 0-2.2339-1.0011-2.2339-2.2374 0-1.2398 0.99398-2.2339 2.2339-2.2339 0.29918 0 0.59142 0.0603 0.85498 0.17169 0.0712-0.64128 0.179-1.2683 0.30996-1.8812-0.22795 0.0749-0.45608 0.12785-0.71617 0.12785-1.2256 0-2.2303-1.0048-2.2303-2.2339 0-1.2435 1.0048-2.2374 2.2303-2.2374 0.78028 0 1.4464 0.38485 1.8562 0.97261 0.3242-0.70192 0.70539-1.3788 1.1222-2.0237-0.19945 0.0566-0.39196 0.0968-0.61644 0.0968-1.2364 0-2.2339-0.99763-2.2339-2.2303 0-1.2398 0.99763-2.241 2.2339-2.241 1.2256 0 2.2339 1.0011 2.2339 2.241v0.0676c0.58082-0.62356 1.2184-1.1971 1.9025-1.7136-1.0296-0.20311-1.8099-1.0937-1.8099-2.184 0-1.2398 1.0082-2.241 2.2374-2.241 1.2364 0 2.2446 1.0011 2.2446 2.241 0 0.22448-0.0457 0.4347-0.11324 0.64493 0.77315-0.35981 1.5819-0.63415 2.4156-0.84438-0.48456-0.40968-0.79799-1.019-0.79799-1.6996 0-1.2435 0.99398-2.241 2.2374-2.241 1.2221 0 2.2303 0.99763 2.2303 2.241 0 0.48804-0.16073 0.92987-0.42758 1.3005 0.79087 0 1.6674 0.0256 2.4441 0.16073 0.0107 7e-3 0.0329 7e-3 0.042 0.0143-0.21023-0.34211-0.33133-0.74101-0.33133-1.1757 0-1.2364 0.99051-2.2374 2.2339-2.2374 1.2327 0 2.2339 1.0011 2.2339 2.2374 0 0.77663-0.39543 1.45-1.0011 1.8598 0.1169 0.0219 0.22082 0.0457 0.3242 0.0712 0 0 0.76603 0.20311 1.8527 0.50229-0.16073-0.31361-0.27434-0.66978-0.27434-1.0475 0-1.2435 1.0082-2.241 2.241-2.241 1.2292 0 2.2339 0.99763 2.2339 2.241 0 0.83014-0.45955 1.5569-1.1401 1.9346 0.53097 0.16438 1.0723 0.33132 1.5712 0.50228 0.0493 0.0107 0.0968 0.0329 0.13881 0.0493-7e-3 -0.10777-0.0365-0.22083-0.0365-0.33498 0-1.2435 1.0082-2.241 2.2446-2.241 1.2292 0 2.2374 0.99763 2.2374 2.241 0 0.77662-0.40621 1.4572-1.0082 1.8598 0.54155 0.29937 1.0902 0.61644 1.6352 0.96914 0.69115 0.45954 1.108 0.9905 1.2791 1.5392 0.179 0.5558 0.16439 1.0225 0.16439 1.0225v16.278h-2.4975l-0.16805-14.907s0.0142-0.20311-0.0639-0.47745c-0.0822-0.26721-0.24585-0.62703-0.6484-0.81589-4.0081-1.9275-5.1518-2.3693-7.9522-3.2386-1.6566-0.4347-2.5474-0.69479-4.425-1.1578-1.8277-0.35634-2.6258-0.39196-3.2956-0.39196-3.2885 0-6.1708 1.4322-8.2443 3.7445-2.0593 2.3158-3.2956 5.5045-3.2956 9.0317 0 0.33498 0.19598 2.38 0.54156 3.488 0.38118 1.3609 1.329 3.007 1.3788 3.3526 0 0 0.50941 1.0581 1.3538 2.8858-0.82302 0.10959-2.0949 0.26722-3.0106 0.39197-0.43817-1.0581-0.83014-1.9809-1.133-2.697" />
                  <path
                    d="m135.3 67.928c-0.22082-0.31342-0.57717-0.52018-1.0261-0.59142-0.15343-0.0292-4.4036-0.58794-4.9024-0.65552-0.14977-0.0107-0.33132 0.0932-0.38118 0.35269-0.0566 0.28859 0.12785 0.45242 0.25296 0.48804l-0.0329-0.0143c2.2659 1.051 3.602 3.1922 3.634 5.7503-3.5165-0.72676-4.3965-2.5296-4.6174-5.02 0-0.10776-0.10045-0.29918-0.39196-0.3242-0.25644-0.0219-0.39197 0.10776-0.44183 0.22082l-7e-3 0.0219-1.3432 10.77v0.0143c0 0.14977 0.10411 0.33498 0.33497 0.38831 0.2316 0.053 0.42759-0.0822 0.48457-0.23872 1.0652-2.2802 3.1816-3.6376 5.6969-3.7018-0.67342 2.526-2.5616 4.4891-5.0164 5.1518l0.0107 7e-3c-1.8348-0.19233-3.6768-0.3706-5.5437-0.53078-1.7814-0.53443-3.0889-1.4893-3.5664-3.7088 0.0256-0.28146 0.0822-0.5737 0.18886-0.86228 0.45242-1.2185 1.3324-2.0237 2.3158-1.6674 1.0261 0.38484 1.133 1.5427 0.68402 2.7612-0.18885 0.50941-0.47744 0.92274-0.80164 1.2292 1.0652-0.0219 2.0165-0.39909 2.7683-1.4606 1.2469-1.7742 1.1008-4.5105-0.84786-5.6363-1.2683-0.74101-3.0355 0.12055-4.3751 1.7922 0.40621-2.6329 2.0058-4.9558 2.1876-6.9866 0.25297-2.8609-0.84804-6.0425-2.4191-6.9189-1.6318 0.59854-3.121 3.5521-3.2635 6.4059-0.0932 2.0344 1.2862 4.7171 1.3574 7.3999-1.1008-1.9132-2.7826-3.0533-4.1578-2.4797-2.0842 0.85151-2.608 3.5379-1.6104 5.4653 0.61644 1.1543 1.4928 1.6566 2.5474 1.8241-0.28858-0.34558-0.5094-0.80512-0.62356-1.329-0.27434-1.272-0.0256-2.3977 1.051-2.6329 1.019-0.22082 1.785 0.68055 2.0629 1.9524 0.0895 0.40968 0.10411 0.80164 0.0457 1.1686v-4e-3c-0.80877 1.9132-2.2695 2.5795-4.0901 3.0284-1.8491-0.0822-3.716-0.14612-5.59-0.18886l-0.19945-0.0384c-2.6365-0.42393-3.9796-2.1092-4.2468-5.2694 2.3194 0.34923 4.1222 1.7065 4.9665 3.7837 0.0384 0.1242 0.179 0.31707 0.48804 0.31707 0.35982 0 0.48804-0.23506 0.48804-0.39543v-9.9623c-0.0493-0.16073-0.19946-0.32073-0.45242-0.32073-0.27069 0-0.40622 0.1852-0.45243 0.29917v7e-3l-0.0107 0.0142c-0.4632 1.8348-1.4144 3.5664-5.0342 3.8621 0.2957-3.52 1.9061-4.6031 4.254-5.1126 0.0639 0 0.179-0.0292 0.27069-0.12785 0.0457-0.0493 0.11324-0.14247 0.11324-0.28859v-0.0292c-0.0143-0.15343-0.0895-0.25297-0.14977-0.30649-0.0932-0.0822-0.20658-0.10776-0.26356-0.10411h-10.859c-0.053-4e-3 -0.17169 0.0219-0.26356 0.10411-0.0603 0.053-0.13881 0.15343-0.15342 0.30649v0.0292c0 0.14612 0.0712 0.23873 0.11689 0.28859 0.0932 0.10046 0.20658 0.12785 0.27069 0.12785 2.3479 0.50941 3.9582 1.5925 4.2575 5.1126-3.6234-0.29571-4.5746-2.0272-5.0342-3.8621l-0.0143-0.0142v-7e-3c-0.0457-0.11324-0.18082-0.29917-0.45242-0.29917-0.25297 0-0.40256 0.16073-0.44895 0.32073v9.9623c0 0.16073 0.12786 0.39543 0.48092 0.39543 0.31342 0 0.45242-0.19232 0.49169-0.31707 0.84438-2.0771 2.6507-3.4345 4.963-3.7837-0.26356 3.1602-1.6068 4.8454-4.2433 5.2694l-0.19945 0.0384c-1.8705 0.042-3.7409 0.10776-5.59 0.18886-1.8206-0.44896-3.2813-1.1151-4.0865-3.0284v4e-3c-0.0603-0.36694-0.0457-0.7589 0.0457-1.1686 0.27781-1.272 1.0404-2.1733 2.0593-1.9524 1.0794 0.23525 1.3253 1.3609 1.0546 2.6329-0.11689 0.52366-0.33845 0.98338-0.62703 1.329 1.0546-0.16804 1.931-0.66978 2.551-1.8241 0.99397-1.9275 0.47032-4.6138-1.6104-5.4653-1.3788-0.57352-3.0569 0.5664-4.1613 2.4797 0.0749-2.6828 1.4537-5.3656 1.3574-7.3999-0.13881-2.8538-1.6318-5.8073-3.2635-6.4059-1.5712 0.87653-2.6721 4.058-2.4191 6.9189 0.18082 2.0308 1.7814 4.3537 2.184 6.9866-1.3361-1.6709-3.1032-2.5331-4.3716-1.7922-1.9488 1.1258-2.0949 3.8621-0.84439 5.6363 0.75179 1.0617 1.6994 1.4395 2.7647 1.4606-0.32073-0.30631-0.60931-0.71964-0.79799-1.2292-0.45242-1.2184-0.34557-2.3764 0.68055-2.7612 0.98685-0.35634 1.8634 0.44895 2.3122 1.6674 0.10959 0.28858 0.16804 0.58082 0.19233 0.86228-0.47744 2.2196-1.785 3.1744-3.5664 3.7088-1.8669 0.16073-3.7053 0.33845-5.5437 0.53078l0.0107-7e-3c-2.4548-0.66265-4.343-2.6258-5.0129-5.1518 2.5118 0.0639 4.6281 1.4216 5.6969 3.7018 0.0566 0.15708 0.24932 0.29205 0.48092 0.23872 0.23507-0.053 0.33845-0.23872 0.33845-0.38831v-0.0143l-1.3432-10.77-0.0107-0.0219c-0.0457-0.11324-0.18521-0.24219-0.44183-0.22082-0.29224 0.0256-0.39196 0.21735-0.39196 0.3242-0.22082 2.4904-1.1008 4.2932-4.6174 5.02 0.0365-2.5581 1.368-4.6993 3.634-5.7503l-0.0329 0.0143c0.12421-0.0365 0.30996-0.19945 0.25297-0.48804-0.0493-0.26009-0.22794-0.36347-0.38118-0.35269-0.49882 0.0676-4.7492 0.62703-4.8988 0.65552-0.45242 0.0712-0.80877 0.27781-1.0296 0.59142-0.24219 0.33498-0.31708 0.7695-0.22795 1.2968 0.1242 0.72329 1.6033 11.116 1.7458 12.071 0.0107 0.0822 0.1242 1.0546 0.16439 1.3432 0.042 0.30283 0.42758 0.60566 0.42758 0.60566s2.1733 1.468 2.5581 1.7637c0.36694 0.28146 0.15707 0.77315 0.15707 0.77315l-1.9274 2.8182c-0.15343 0.18886-0.23507 0.37772-0.23507 0.37772-0.042 0.11324-0.0639 0.23872-0.0639 0.36347 0 0.3421 0.15708 0.64128 0.4168 0.83379l31.759 0.0107h0.78028l31.602-0.0107c0.25662-0.19233 0.4168-0.49169 0.4168-0.83379 0-0.1242-0.0219-0.24931-0.0676-0.36347 0 0-0.0785-0.18886-0.23507-0.37772l-1.9275-2.8182s-0.21022-0.49169 0.16074-0.77315c0.38118-0.29571 2.5545-1.7637 2.5545-1.7637s0.38484-0.30283 0.43105-0.60566c0.0365-0.28859 0.15343-1.2612 0.16439-1.3432 0.13881-0.95489 1.6175-11.348 1.7423-12.071 0.0895-0.52731 0.0142-0.96201-0.22795-1.2968m-47.848 17.853-7.0828 0.37406c-0.71616 0.0384-1.3432-0.51306-1.3752-1.2327l-0.0603-1.0082c-0.0365-0.71963 0.52018-1.329 1.2469-1.3646l7.0757-0.38484c0.72676-0.0365 1.3432 0.51653 1.3788 1.2435l0.0566 0.99763c0.0329 0.73042-0.52019 1.3396-1.2398 1.3752m15.623-1.7885-2.5224 2.5224c-0.0895 0.0931-0.20658 0.13882-0.32767 0.14612h-0.0107c-0.12054-7e-3 -0.23872-0.053-0.33132-0.14612l-2.5225-2.5224c-0.21022-0.20658-0.21022-0.52366 0-0.72676l2.5225-2.5225c0.0931-0.0932 0.21023-0.13516 0.33132-0.14246h0.0107c0.12054 7e-3 0.23872 0.0493 0.32767 0.14246l2.5224 2.5225c0.21023 0.2031 0.21023 0.52018 0 0.72676m18.37 0.92986c-0.0329 0.71964-0.65918 1.272-1.3788 1.2327l-7.0828-0.37406c-0.71616-0.0365-1.272-0.64494-1.2398-1.3752l0.0566-0.99763c0.0365-0.72676 0.65206-1.2791 1.3823-1.2435l7.0722 0.38484c0.73041 0.0365 1.2826 0.64494 1.2469 1.3646z" />
                  <path
                    d="m100.32 0.025c33.383 0 60.543 27.156 60.543 60.539 0 33.387-27.159 60.546-60.543 60.546s-60.539-27.159-60.539-60.546c0-33.383 27.156-60.539 60.539-60.539m0 114c29.471 0 53.449-23.981 53.449-53.456 0-29.471-23.978-53.449-53.449-53.449s-53.449 23.978-53.449 53.449c0 29.475 23.978 53.456 53.449 53.456" />
                </g>
              </g>
            </svg>